<svg id="Layer_1" data-name="Layer 1" xmlns="http://www.w3.org/2000/svg" xmlns:xlink="http://www.w3.org/1999/xlink" viewBox="0 0 1334.31 941.17"><defs><clipPath id="clip-path" transform="translate(262.26 30.78)"><circle cx="401.11" cy="399.55" r="392.3" style="fill:#49453e"/></clipPath><clipPath id="clip-path-2" transform="translate(262.26 30.78)"><circle cx="401.11" cy="399.55" r="392.3" style="fill:none"/></clipPath></defs><title>sticker</title><circle cx="663.37" cy="430.34" r="392.3" style="fill:#49453e"/><g style="clip-path:url(#clip-path)"><rect width="75.76" height="75.76" style="fill:#332f2c"/><rect x="78.68" width="75.76" height="75.76" style="fill:#332f2c"/><rect x="157.35" width="75.76" height="75.76" style="fill:#332f2c"/><rect x="236.02" width="75.76" height="75.76" style="fill:#332f2c"/><rect x="314.7" width="75.75" height="75.76" style="fill:#332f2c"/><rect x="393.37" width="75.76" height="75.76" style="fill:#332f2c"/><rect x="472.05" width="75.76" height="75.76" style="fill:#332f2c"/><rect x="550.72" width="75.76" height="75.76" style="fill:#332f2c"/><rect x="629.39" width="75.75" height="75.76" style="fill:#332f2c"/><rect x="708.06" width="75.75" height="75.76" style="fill:#332f2c"/><rect x="786.74" width="75.75" height="75.76" style="fill:#332f2c"/><rect x="865.41" width="75.76" height="75.76" style="fill:#332f2c"/><rect x="944.08" width="75.76" height="75.76" style="fill:#332f2c"/><rect x="1022.76" width="75.75" height="75.76" style="fill:#332f2c"/><rect x="1101.44" width="75.75" height="75.76" style="fill:#332f2c"/><rect x="1180.11" width="75.76" height="75.76" style="fill:#332f2c"/><rect y="78.67" width="75.76" height="75.76" style="fill:#332f2c"/><rect x="78.68" y="78.67" width="75.76" height="75.76" style="fill:#332f2c"/><rect x="157.35" y="78.67" width="75.76" height="75.76" style="fill:#332f2c"/><rect x="236.02" y="78.67" width="75.76" height="75.76" style="fill:#332f2c"/><rect x="314.7" y="78.67" width="75.75" height="75.76" style="fill:#332f2c"/><rect x="393.37" y="78.67" width="75.76" height="75.76" style="fill:#332f2c"/><rect x="472.05" y="78.67" width="75.76" height="75.76" style="fill:#332f2c"/><rect x="550.72" y="78.67" width="75.76" height="75.76" style="fill:#332f2c"/><rect x="629.39" y="78.67" width="75.75" height="75.76" style="fill:#332f2c"/><rect x="708.06" y="78.67" width="75.75" height="75.76" style="fill:#332f2c"/><rect x="786.74" y="78.67" width="75.75" height="75.76" style="fill:#332f2c"/><rect x="865.41" y="78.67" width="75.76" height="75.76" style="fill:#332f2c"/><rect x="944.08" y="78.67" width="75.76" height="75.76" style="fill:#332f2c"/><rect x="1022.76" y="78.67" width="75.75" height="75.76" style="fill:#332f2c"/><rect x="1101.44" y="78.67" width="75.75" height="75.76" style="fill:#332f2c"/><rect x="1180.11" y="78.67" width="75.76" height="75.76" style="fill:#332f2c"/><rect y="157.35" width="75.76" height="75.76" style="fill:#332f2c"/><rect x="78.68" y="157.35" width="75.76" height="75.76" style="fill:#332f2c"/><rect x="157.35" y="157.35" width="75.76" height="75.76" style="fill:#332f2c"/><rect x="236.02" y="157.35" width="75.76" height="75.76" style="fill:#332f2c"/><rect x="314.7" y="157.35" width="75.75" height="75.76" style="fill:#332f2c"/><rect x="393.37" y="157.35" width="75.76" height="75.76" style="fill:#332f2c"/><rect x="472.05" y="157.35" width="75.76" height="75.76" style="fill:#332f2c"/><rect x="550.72" y="157.35" width="75.76" height="75.76" style="fill:#332f2c"/><rect x="629.39" y="157.35" width="75.75" height="75.76" style="fill:#332f2c"/><rect x="708.06" y="157.35" width="75.75" height="75.76" style="fill:#332f2c"/><rect x="786.74" y="157.35" width="75.75" height="75.76" style="fill:#332f2c"/><rect x="865.41" y="157.35" width="75.76" height="75.76" style="fill:#332f2c"/><rect x="944.08" y="157.35" width="75.76" height="75.76" style="fill:#332f2c"/><rect x="1022.76" y="157.35" width="75.75" height="75.76" style="fill:#332f2c"/><rect x="1101.44" y="157.35" width="75.75" height="75.76" style="fill:#332f2c"/><rect x="1180.11" y="157.35" width="75.76" height="75.76" style="fill:#332f2c"/><rect y="236.02" width="75.76" height="75.76" style="fill:#332f2c"/><rect x="78.68" y="236.02" width="75.76" height="75.76" style="fill:#332f2c"/><rect x="157.35" y="236.02" width="75.76" height="75.76" style="fill:#332f2c"/><rect x="236.02" y="236.02" width="75.76" height="75.76" style="fill:#332f2c"/><rect x="314.7" y="236.02" width="75.75" height="75.76" style="fill:#332f2c"/><rect x="393.37" y="236.02" width="75.76" height="75.76" style="fill:#332f2c"/><rect x="472.05" y="236.02" width="75.76" height="75.76" style="fill:#332f2c"/><rect x="550.72" y="236.02" width="75.76" height="75.76" style="fill:#332f2c"/><rect x="629.39" y="236.02" width="75.75" height="75.76" style="fill:#332f2c"/><rect x="708.06" y="236.02" width="75.75" height="75.76" style="fill:#332f2c"/><rect x="786.74" y="236.02" width="75.75" height="75.76" style="fill:#332f2c"/><rect x="865.41" y="236.02" width="75.76" height="75.76" style="fill:#332f2c"/><rect x="944.08" y="236.02" width="75.76" height="75.76" style="fill:#332f2c"/><rect x="1022.76" y="236.02" width="75.75" height="75.76" style="fill:#332f2c"/><rect x="1101.44" y="236.02" width="75.75" height="75.76" style="fill:#332f2c"/><rect x="1180.11" y="236.02" width="75.76" height="75.76" style="fill:#332f2c"/><rect y="314.7" width="75.76" height="75.76" style="fill:#332f2c"/><rect x="78.68" y="314.7" width="75.76" height="75.76" style="fill:#332f2c"/><rect x="157.35" y="314.7" width="75.76" height="75.76" style="fill:#332f2c"/><rect x="236.02" y="314.7" width="75.76" height="75.76" style="fill:#332f2c"/><rect x="314.7" y="314.7" width="75.75" height="75.76" style="fill:#332f2c"/><rect x="393.37" y="314.7" width="75.76" height="75.76" style="fill:#332f2c"/><rect x="472.05" y="314.7" width="75.76" height="75.76" style="fill:#332f2c"/><rect x="550.72" y="314.7" width="75.76" height="75.76" style="fill:#332f2c"/><rect x="629.39" y="314.7" width="75.75" height="75.76" style="fill:#332f2c"/><rect x="708.06" y="314.7" width="75.75" height="75.76" style="fill:#332f2c"/><rect x="786.74" y="314.7" width="75.75" height="75.76" style="fill:#332f2c"/><rect x="865.41" y="314.7" width="75.76" height="75.76" style="fill:#332f2c"/><rect x="944.08" y="314.7" width="75.76" height="75.76" style="fill:#332f2c"/><rect x="1022.76" y="314.7" width="75.75" height="75.76" style="fill:#332f2c"/><rect x="1101.44" y="314.7" width="75.75" height="75.76" style="fill:#332f2c"/><rect x="1180.11" y="314.7" width="75.76" height="75.76" style="fill:#332f2c"/><rect y="393.37" width="75.76" height="75.76" style="fill:#332f2c"/><rect x="78.68" y="393.37" width="75.76" height="75.76" style="fill:#332f2c"/><rect x="157.35" y="393.37" width="75.76" height="75.76" style="fill:#332f2c"/><rect x="236.02" y="393.37" width="75.76" height="75.76" style="fill:#332f2c"/><rect x="314.7" y="393.37" width="75.75" height="75.76" style="fill:#332f2c"/><rect x="393.37" y="393.37" width="75.76" height="75.76" style="fill:#332f2c"/><rect x="472.05" y="393.37" width="75.76" height="75.76" style="fill:#332f2c"/><rect x="550.72" y="393.37" width="75.76" height="75.76" style="fill:#332f2c"/><rect x="629.39" y="393.37" width="75.75" height="75.76" style="fill:#332f2c"/><rect x="708.06" y="393.37" width="75.75" height="75.76" style="fill:#332f2c"/><rect x="786.74" y="393.37" width="75.75" height="75.76" style="fill:#332f2c"/><rect x="865.41" y="393.37" width="75.76" height="75.76" style="fill:#332f2c"/><rect x="944.08" y="393.37" width="75.76" height="75.76" style="fill:#332f2c"/><rect x="1022.76" y="393.37" width="75.75" height="75.76" style="fill:#332f2c"/><rect x="1101.44" y="393.37" width="75.75" height="75.76" style="fill:#332f2c"/><rect x="1180.11" y="393.37" width="75.76" height="75.76" style="fill:#332f2c"/><rect y="472.04" width="75.76" height="75.76" style="fill:#332f2c"/><rect x="78.68" y="472.04" width="75.76" height="75.76" style="fill:#332f2c"/><rect x="157.35" y="472.04" width="75.76" height="75.76" style="fill:#332f2c"/><rect x="236.02" y="472.04" width="75.76" height="75.76" style="fill:#332f2c"/><rect x="314.7" y="472.04" width="75.75" height="75.76" style="fill:#332f2c"/><rect x="393.37" y="472.04" width="75.76" height="75.76" style="fill:#332f2c"/><rect x="472.05" y="472.04" width="75.76" height="75.76" style="fill:#332f2c"/><rect x="550.72" y="472.04" width="75.76" height="75.76" style="fill:#332f2c"/><rect x="629.39" y="472.04" width="75.75" height="75.76" style="fill:#332f2c"/><rect x="708.06" y="472.04" width="75.75" height="75.76" style="fill:#332f2c"/><rect x="786.74" y="472.04" width="75.75" height="75.76" style="fill:#332f2c"/><rect x="865.41" y="472.04" width="75.76" height="75.76" style="fill:#332f2c"/><rect x="944.08" y="472.04" width="75.76" height="75.76" style="fill:#332f2c"/><rect x="1022.76" y="472.04" width="75.75" height="75.76" style="fill:#332f2c"/><rect x="1101.44" y="472.04" width="75.75" height="75.76" style="fill:#332f2c"/><rect x="1180.11" y="472.04" width="75.76" height="75.76" style="fill:#332f2c"/><rect y="550.72" width="75.76" height="75.76" style="fill:#332f2c"/><rect x="78.68" y="550.72" width="75.76" height="75.76" style="fill:#332f2c"/><rect x="157.35" y="550.72" width="75.76" height="75.76" style="fill:#332f2c"/><rect x="236.02" y="550.72" width="75.76" height="75.76" style="fill:#332f2c"/><rect x="314.7" y="550.72" width="75.75" height="75.76" style="fill:#332f2c"/><rect x="393.37" y="550.72" width="75.76" height="75.76" style="fill:#332f2c"/><rect x="472.05" y="550.72" width="75.76" height="75.76" style="fill:#332f2c"/><rect x="550.72" y="550.72" width="75.76" height="75.76" style="fill:#332f2c"/><rect x="629.39" y="550.72" width="75.75" height="75.76" style="fill:#332f2c"/><rect x="708.06" y="550.72" width="75.75" height="75.76" style="fill:#332f2c"/><rect x="786.74" y="550.72" width="75.75" height="75.76" style="fill:#332f2c"/><rect x="865.41" y="550.72" width="75.76" height="75.76" style="fill:#332f2c"/><rect x="944.08" y="550.72" width="75.76" height="75.76" style="fill:#332f2c"/><rect x="1022.76" y="550.72" width="75.75" height="75.76" style="fill:#332f2c"/><rect x="1101.44" y="550.72" width="75.75" height="75.76" style="fill:#332f2c"/><rect x="1180.11" y="550.72" width="75.76" height="75.76" style="fill:#332f2c"/><rect y="629.39" width="75.76" height="75.76" style="fill:#332f2c"/><rect x="78.68" y="629.39" width="75.76" height="75.76" style="fill:#332f2c"/><rect x="157.35" y="629.39" width="75.76" height="75.76" style="fill:#332f2c"/><rect x="236.02" y="629.39" width="75.76" height="75.76" style="fill:#332f2c"/><rect x="314.7" y="629.39" width="75.75" height="75.76" style="fill:#332f2c"/><rect x="393.37" y="629.39" width="75.76" height="75.76" style="fill:#332f2c"/><rect x="472.05" y="629.39" width="75.76" height="75.76" style="fill:#332f2c"/><rect x="550.72" y="629.39" width="75.76" height="75.76" style="fill:#332f2c"/><rect x="629.39" y="629.39" width="75.75" height="75.76" style="fill:#332f2c"/><rect x="708.06" y="629.39" width="75.75" height="75.76" style="fill:#332f2c"/><rect x="786.74" y="629.39" width="75.75" height="75.76" style="fill:#332f2c"/><rect x="865.41" y="629.39" width="75.76" height="75.76" style="fill:#332f2c"/><rect x="944.08" y="629.39" width="75.76" height="75.76" style="fill:#332f2c"/><rect x="1022.76" y="629.39" width="75.75" height="75.76" style="fill:#332f2c"/><rect x="1101.44" y="629.39" width="75.75" height="75.76" style="fill:#332f2c"/><rect x="1180.11" y="629.39" width="75.76" height="75.76" style="fill:#332f2c"/><rect y="708.07" width="75.76" height="75.76" style="fill:#332f2c"/><rect x="78.68" y="708.07" width="75.76" height="75.76" style="fill:#332f2c"/><rect x="157.35" y="708.07" width="75.76" height="75.76" style="fill:#332f2c"/><rect x="236.02" y="708.07" width="75.76" height="75.76" style="fill:#332f2c"/><rect x="314.7" y="708.07" width="75.75" height="75.76" style="fill:#332f2c"/><rect x="393.37" y="708.07" width="75.76" height="75.76" style="fill:#332f2c"/><rect x="472.05" y="708.07" width="75.76" height="75.76" style="fill:#332f2c"/><rect x="550.72" y="708.07" width="75.76" height="75.76" style="fill:#332f2c"/><rect x="629.39" y="708.07" width="75.75" height="75.76" style="fill:#332f2c"/><rect x="708.06" y="708.07" width="75.75" height="75.76" style="fill:#332f2c"/><rect x="786.74" y="708.07" width="75.75" height="75.76" style="fill:#332f2c"/><rect x="865.41" y="708.07" width="75.76" height="75.76" style="fill:#332f2c"/><rect x="944.08" y="708.07" width="75.76" height="75.76" style="fill:#332f2c"/><rect x="1022.76" y="708.07" width="75.75" height="75.76" style="fill:#332f2c"/><rect x="1101.44" y="708.07" width="75.75" height="75.76" style="fill:#332f2c"/><rect x="1180.11" y="708.07" width="75.76" height="75.76" style="fill:#332f2c"/><rect y="786.74" width="75.76" height="75.76" style="fill:#332f2c"/><rect x="78.68" y="786.74" width="75.76" height="75.76" style="fill:#332f2c"/><rect x="157.35" y="786.74" width="75.76" height="75.76" style="fill:#332f2c"/><rect x="236.02" y="786.74" width="75.76" height="75.76" style="fill:#332f2c"/><rect x="314.7" y="786.74" width="75.75" height="75.76" style="fill:#332f2c"/><rect x="393.37" y="786.74" width="75.76" height="75.76" style="fill:#332f2c"/><rect x="472.05" y="786.74" width="75.76" height="75.76" style="fill:#332f2c"/><rect x="550.72" y="786.74" width="75.76" height="75.76" style="fill:#332f2c"/><rect x="629.39" y="786.74" width="75.75" height="75.76" style="fill:#332f2c"/><rect x="708.06" y="786.74" width="75.75" height="75.76" style="fill:#332f2c"/><rect x="786.74" y="786.74" width="75.75" height="75.76" style="fill:#332f2c"/><rect x="865.41" y="786.74" width="75.76" height="75.76" style="fill:#332f2c"/><rect x="944.08" y="786.74" width="75.76" height="75.76" style="fill:#332f2c"/><rect x="1022.76" y="786.74" width="75.75" height="75.76" style="fill:#332f2c"/><rect x="1101.44" y="786.74" width="75.75" height="75.76" style="fill:#332f2c"/><rect x="1180.11" y="786.74" width="75.76" height="75.76" style="fill:#332f2c"/><rect y="865.41" width="75.76" height="75.75" style="fill:#332f2c"/><rect x="78.68" y="865.41" width="75.76" height="75.75" style="fill:#332f2c"/><rect x="157.35" y="865.41" width="75.76" height="75.75" style="fill:#332f2c"/><rect x="236.02" y="865.41" width="75.76" height="75.75" style="fill:#332f2c"/><rect x="314.7" y="865.41" width="75.75" height="75.75" style="fill:#332f2c"/><rect x="393.37" y="865.41" width="75.76" height="75.75" style="fill:#332f2c"/><rect x="472.05" y="865.41" width="75.76" height="75.75" style="fill:#332f2c"/><rect x="550.72" y="865.41" width="75.76" height="75.75" style="fill:#332f2c"/><rect x="629.39" y="865.41" width="75.75" height="75.75" style="fill:#332f2c"/><rect x="708.06" y="865.41" width="75.75" height="75.75" style="fill:#332f2c"/><rect x="786.74" y="865.41" width="75.75" height="75.75" style="fill:#332f2c"/><rect x="865.41" y="865.41" width="75.76" height="75.75" style="fill:#332f2c"/><rect x="944.08" y="865.41" width="75.76" height="75.75" style="fill:#332f2c"/><rect x="1022.76" y="865.41" width="75.75" height="75.75" style="fill:#332f2c"/><rect x="1101.44" y="865.41" width="75.75" height="75.75" style="fill:#332f2c"/><rect x="1180.11" y="865.41" width="75.76" height="75.75" style="fill:#332f2c"/></g><g style="clip-path:url(#clip-path-2)"><polygon points="546.81 826.06 498.65 826.06 1076.57 55.51 1124.72 55.51 546.81 826.06" style="fill:#68c6e5"/><polygon points="498.65 826.06 450.49 826.06 1028.41 55.51 1076.57 55.51 498.65 826.06" style="fill:#83c190"/><polygon points="450.49 826.06 402.33 826.06 980.25 55.51 1028.41 55.51 450.49 826.06" style="fill:#f8ed85"/><polygon points="402.33 826.06 354.17 826.06 932.09 55.51 980.25 55.51 402.33 826.06" style="fill:#ef8927"/><polygon points="354.17 826.06 306.01 826.06 883.93 55.51 932.09 55.51 354.17 826.06" style="fill:#e96969"/></g><g style="clip-path:url(#clip-path-2)"><rect x="44.57" y="249.03" width="1289.74" height="63.57" style="fill:#b4ad98"/></g><text transform="translate(349.17 292.36)" style="font-size:34.96274948120117px;fill:#e2e0cd;font-family:ArialMT, Arial">ACID POLK<tspan x="186.52" y="0" style="letter-spacing:-0.055178704403304864em">A</tspan><tspan x="207.92" y="0" xml:space="preserve"> NERDSTE</tspan><tspan x="384.69" y="0" style="letter-spacing:-0.018071689065521767em">P</tspan><tspan x="407.38" y="0" xml:space="preserve"> HOBB</tspan><tspan x="516.18" y="0" style="letter-spacing:-0.018099620578760595em">Y</tspan><tspan x="538.87" y="0" xml:space="preserve"> RA</tspan><tspan x="597.15" y="0" style="letter-spacing:-0.018071689065521767em">P</tspan></text><rect x="330.5" y="372.03" width="85.44" height="85.46" style="fill:#515151"/><rect x="330.5" y="368.15" width="77.67" height="81.56" style="fill:#efefef"/><rect x="427.61" y="372.03" width="85.44" height="85.46" style="fill:#515151"/><rect x="427.61" y="368.15" width="77.68" height="81.56" style="fill:#efefef"/><rect x="524.71" y="372.03" width="85.45" height="85.46" style="fill:#515151"/><rect x="524.71" y="368.15" width="77.68" height="81.56" style="fill:#efefef"/><rect x="621.81" y="372.03" width="85.45" height="85.46" style="fill:#515151"/><rect x="621.81" y="368.15" width="77.68" height="81.56" style="fill:#efefef"/><rect x="718.92" y="372.03" width="85.45" height="85.46" style="fill:#515151"/><rect x="718.92" y="368.15" width="77.68" height="81.56" style="fill:#efefef"/><rect x="816.02" y="372.03" width="85.45" height="85.46" style="fill:#515151"/><rect x="816.02" y="368.15" width="77.68" height="81.56" style="fill:#efefef"/><rect x="913.13" y="372.03" width="85.45" height="85.46" style="fill:#515151"/><rect x="913.13" y="368.15" width="77.68" height="81.56" style="fill:#dad9d9"/><text transform="translate(348.75 430.12)" style="font-size:54.375579833984375px;font-family:ArialRoundedMTBold, Arial Rounded MT Bold">U</text><text transform="translate(448.37 430.12)" style="font-size:54.375579833984375px;font-family:ArialRoundedMTBold, Arial Rounded MT Bold">P</text><text transform="translate(555.07 430.12)" style="font-size:54.375579833984375px;font-family:ArialRoundedMTBold, Arial Rounded MT Bold">I</text><text transform="translate(643.72 430.12)" style="font-size:54.375579833984375px;font-family:ArialRoundedMTBold, Arial Rounded MT Bold">T</text><text transform="translate(737.17 430.12)" style="font-size:54.375579833984375px;font-family:ArialRoundedMTBold, Arial Rounded MT Bold">U</text><text transform="translate(836.79 430.12)" style="font-size:54.375579833984375px;font-family:ArialRoundedMTBold, Arial Rounded MT Bold">P</text><rect x="330.5" y="469.13" width="85.44" height="85.45" style="fill:#515151"/><rect x="330.5" y="465.25" width="77.67" height="81.56" style="fill:#efefef"/><rect x="427.61" y="469.13" width="85.44" height="85.45" style="fill:#515151"/><rect x="427.61" y="465.25" width="77.68" height="81.56" style="fill:#efefef"/><rect x="524.71" y="469.13" width="85.45" height="85.45" style="fill:#515151"/><rect x="524.71" y="465.25" width="77.68" height="81.56" style="fill:#efefef"/><rect x="621.81" y="469.13" width="85.45" height="85.45" style="fill:#515151"/><rect x="621.81" y="465.25" width="77.68" height="81.56" style="fill:#efefef"/><rect x="718.92" y="469.13" width="85.45" height="85.45" style="fill:#515151"/><rect x="718.92" y="465.25" width="77.68" height="81.56" style="fill:#efefef"/><rect x="816.02" y="469.13" width="85.45" height="85.45" style="fill:#515151"/><rect x="816.02" y="465.25" width="77.68" height="81.56" style="fill:#efefef"/><rect x="913.13" y="469.13" width="85.45" height="85.45" style="fill:#515151"/><rect x="913.13" y="465.25" width="77.68" height="81.56" style="fill:#efefef"/><text transform="translate(349.85 527.22)" style="font-size:54.375579833984375px;font-family:ArialRoundedMTBold, Arial Rounded MT Bold">R</text><text transform="translate(448.37 527.22)" style="font-size:54.375579833984375px;font-family:ArialRoundedMTBold, Arial Rounded MT Bold">E</text><text transform="translate(543.49 527.22)" style="font-size:54.375579833984375px;font-family:ArialRoundedMTBold, Arial Rounded MT Bold">C</text><text transform="translate(639.19 527.22)" style="font-size:54.375579833984375px;font-family:ArialRoundedMTBold, Arial Rounded MT Bold">O</text><text transform="translate(738.27 527.22)" style="font-size:54.375579833984375px;font-family:ArialRoundedMTBold, Arial Rounded MT Bold">R</text><text transform="translate(834.81 527.22)" style="font-size:54.375579833984375px;font-family:ArialRoundedMTBold, Arial Rounded MT Bold">D</text><text transform="translate(933.89 527.22)" style="font-size:54.375579833984375px;font-family:ArialRoundedMTBold, Arial Rounded MT Bold">S</text></svg>