<?xml version="1.0" encoding="UTF-8" standalone="no"?>
<!DOCTYPE svg PUBLIC "-//W3C//DTD SVG 1.1//EN" "http://www.w3.org/Graphics/SVG/1.1/DTD/svg11.dtd">
<svg width="100%" height="100%" viewBox="0 0 120 60" version="1.1" xmlns="http://www.w3.org/2000/svg" xmlns:xlink="http://www.w3.org/1999/xlink" xml:space="preserve" xmlns:serif="http://www.serif.com/" style="fill-rule:evenodd;clip-rule:evenodd;stroke-linejoin:round;stroke-miterlimit:1.41421;">
    <g id="g4697" transform="matrix(0.66119,0,0,0.66119,100.298,73.6213)">
        <g id="path14-3" transform="matrix(1,0,0,1,-4.23347,-91.2997)">
            <path d="M5.721,23.222L0,23.222L0,0.673L5.385,0.673L5.385,3.197C6.058,1.683 7.741,0.336 9.929,0.168C13.631,0 16.155,2.188 16.155,6.899L16.155,23.222L10.265,23.222L10.265,6.227C10.265,4.207 10.265,2.524 8.919,2.187C8.414,2.02 7.573,2.187 6.899,2.691C6.058,3.533 5.721,4.543 5.721,6.227C5.721,6.562 5.721,23.222 5.721,23.222Z" style="fill:white;"/>
        </g>
        <g id="path18-8" transform="matrix(1,0,0,1,-109.744,-91.1317)">
            <path d="M13.967,2.019C12.621,0.842 10.938,0 8.918,0C6.9,0 5.385,0.842 3.87,2.019C1.514,4.039 0,7.741 0,11.779C0,15.986 1.514,19.52 3.87,21.54C5.385,22.718 6.9,23.559 8.918,23.559C10.938,23.559 12.621,22.718 13.967,21.54C16.491,19.52 17.837,15.986 17.837,11.779C17.837,7.741 16.491,4.039 13.967,2.019ZM11.779,11.779C11.779,15.986 11.779,19.353 11.105,21.035C10.602,21.876 10.096,22.381 8.918,22.381C7.909,22.381 7.236,21.876 6.9,21.035C6.058,19.353 6.058,15.986 6.058,11.779C6.058,7.741 6.058,4.207 6.9,2.523C7.236,1.683 7.909,1.178 8.918,1.178C10.096,1.178 10.602,1.683 11.105,2.523C11.948,4.207 11.779,7.741 11.779,11.779Z" style="fill:white;"/>
        </g>
        <g id="path22-4" transform="matrix(1,0,0,1,-50.3425,-59.495)">
            <path d="M13.294,0L13.294,6.058L12.117,6.058C11.444,3.534 10.434,1.347 7.742,1.178C6.059,1.01 4.544,2.019 4.375,3.534C4.207,5.048 4.712,6.395 7.742,8.077C11.612,10.265 14.641,11.274 14.641,15.818C14.641,20.698 10.434,23.055 6.9,23.055C5.385,23.055 0.168,23.055 0.168,23.055L0.168,14.64L1.347,14.64C2.189,19.016 3.535,21.708 6.732,21.876C8.751,21.876 10.265,20.698 10.265,18.511C10.265,16.323 8.919,14.977 5.722,13.125C2.189,10.938 0,9.592 0,6.563C0,2.524 2.862,0 7.405,0C8.919,0 13.294,0 13.294,0Z" style="fill:white;"/>
        </g>
        <g id="path26-6" transform="matrix(1,0,0,1,-55.7265,-91.2997)">
            <path d="M26.083,23.222L26.083,6.899C26.083,2.188 23.558,0 19.856,0.168C17.332,0.336 15.818,2.02 15.144,3.365C14.303,1.01 12.452,0 9.759,0.168C7.573,0.336 5.889,1.683 5.216,3.197L5.216,0.673L0,0.673L0,23.222L5.721,23.222C5.721,23.222 5.721,6.731 5.721,6.227C5.721,4.543 5.889,3.533 6.899,2.691C7.573,2.187 8.246,2.02 8.75,2.187C10.096,2.524 10.096,4.207 10.096,6.227L10.096,23.222L15.818,23.222L15.818,6.059C15.818,4.543 16.154,3.533 16.996,2.691C17.669,2.187 18.342,2.02 18.847,2.187C20.193,2.524 20.361,4.207 20.361,6.227L20.361,23.222L26.083,23.222Z" style="fill:white;"/>
        </g>
        <g id="path30-5" transform="matrix(1,0,0,1,-88.0364,-95.3387)">
            <rect x="0" y="0" width="5.89" height="27.261" style="fill:white;"/>
        </g>
        <g id="path34-8" transform="matrix(1,0,0,1,-78.4446,-95.3387)">
            <path d="M17.165,27.261L17.165,0L11.274,0L11.274,6.395C10.771,5.217 9.592,4.375 7.909,4.375C3.702,4.375 0.336,8.75 0.168,15.481C0,20.025 1.515,27.598 7.404,27.598C9.76,27.598 11.106,26.252 11.611,25.073L11.611,27.261L17.165,27.261ZM10.265,6.563C11.443,8.246 11.443,12.284 11.443,15.481C11.443,18.847 11.611,23.223 10.265,25.073C9.76,25.747 9.256,26.083 8.414,26.083C7.236,26.083 6.563,24.737 6.227,22.55C6.058,20.53 6.058,18.006 6.058,15.313C6.058,10.77 6.395,5.722 8.582,5.722C9.424,5.722 9.76,6.059 10.265,6.563Z" style="fill:white;"/>
        </g>
        <g id="path38-7" transform="matrix(1,0,0,1,-25.7735,-91.1317)">
            <path d="M13.631,1.178C15.145,2.019 16.155,3.365 16.155,6.395L16.155,23.054L10.602,23.054L10.602,20.53C9.929,22.381 8.078,23.559 5.553,23.559C3.534,23.559 0,22.55 0,17.333C0,12.452 3.198,11.443 6.732,9.929C9.929,8.583 10.265,8.413 10.265,7.067C10.265,5.891 10.265,4.88 10.265,3.365C10.265,1.852 9.425,1.178 7.741,1.178C7.068,1.346 5.89,1.683 5.89,2.523C5.721,3.534 6.899,3.534 7.068,5.049C7.236,7.404 5.385,8.245 3.703,8.077C2.524,8.077 1.178,7.404 1.01,5.554C0.842,2.523 4.207,0 8.919,0C11.107,0 12.453,0.505 13.631,1.178ZM10.265,9.592L8.414,10.769C6.563,11.948 6.226,13.462 6.058,15.145C5.89,16.491 5.89,17.67 6.058,19.688C6.226,21.54 7.405,21.876 8.414,21.54C9.593,21.035 10.265,18.848 10.265,16.491C10.265,16.491 10.265,10.434 10.265,9.592Z" style="fill:white;"/>
        </g>
        <g id="path42-0" transform="matrix(1,0,0,1,-109.073,-59.495)">
            <path d="M13.632,1.01C15.147,2.019 15.987,3.197 15.987,6.226L15.987,23.055L10.603,23.055L10.603,20.53C9.93,22.213 8.079,23.391 5.554,23.391C3.366,23.391 0,22.549 0,17.333C0,12.453 3.198,11.443 6.565,9.929C9.93,8.414 10.266,8.246 10.266,7.067C10.266,5.89 10.266,4.88 10.266,3.365C10.266,1.683 9.424,1.01 7.742,1.178C7.068,1.178 5.891,1.515 5.891,2.356C5.723,3.534 6.9,3.534 7.068,5.048C7.237,7.236 5.386,8.077 3.703,8.077C2.525,7.909 1.179,7.236 1.01,5.385C0.842,2.524 4.208,0 8.92,0C11.107,0 12.453,0.337 13.632,1.01ZM10.266,9.424L8.415,10.602C6.564,11.779 6.228,13.294 6.059,14.977C5.891,16.323 5.891,17.669 6.059,19.52C6.059,21.54 7.237,21.876 8.246,21.371C9.593,20.866 10.266,18.848 10.266,16.323C10.266,16.323 10.266,10.265 10.266,9.424Z" style="fill:white;"/>
        </g>
        <g id="path46-6" transform="matrix(1,0,0,1,-89.2142,-63.87)">
            <path d="M34.497,11.107C34.497,6.395 31.973,4.038 28.27,4.375C26.42,4.543 24.905,5.385 24.063,6.563L24.063,0L18.342,0L18.342,15.482C18.342,21.203 14.304,26.588 10.265,26.419C7.403,26.419 6.73,24.232 6.395,21.876C5.89,18.51 5.89,14.64 6.226,10.433C6.563,7.74 7.235,5.553 9.255,5.553C10.77,5.553 10.938,6.563 10.265,7.235C9.591,8.077 8.582,8.918 9.087,10.77C9.591,12.789 12.788,13.125 14.304,11.611C15.481,10.265 15.314,8.077 14.472,6.731C13.462,5.048 11.779,4.375 9.255,4.375C6.058,4.375 0,7.235 0,16.323C0,26.083 6.226,27.766 9.76,27.766C13.799,27.766 17.332,24.232 18.342,21.371L18.342,27.43L24.063,27.43L24.063,10.433C24.063,8.75 24.4,7.74 25.241,6.898C25.915,6.394 26.756,6.226 27.261,6.394C28.607,6.73 28.607,8.413 28.607,10.433L28.607,27.43L34.497,27.43L34.497,11.106Z" style="fill:white;"/>
        </g>
        <g id="path50-8" transform="matrix(1,0,0,1,-133.977,-95.8436)">
            <path d="M20.361,0L20.361,9.592L19.184,9.592C18.174,4.88 15.986,1.346 12.957,1.178C10.938,1.01 9.761,2.188 8.75,3.871C7.741,5.89 7.235,10.097 7.235,15.146C7.235,19.857 7.404,23.391 7.909,25.915C8.245,27.093 9.087,28.944 11.274,28.944C12.452,28.944 13.294,28.607 13.799,27.935C14.641,26.925 14.809,24.905 14.809,23.56C14.809,21.372 14.809,20.698 14.809,19.016C14.809,17.333 14.304,16.323 13.462,15.818C12.789,15.481 11.779,15.481 11.274,15.314L11.274,14.136L20.698,14.136L20.698,38.199L19.52,38.199C19.016,36.349 18.679,35.002 17.838,33.487C16.996,31.974 15.482,30.291 12.957,30.291C10.265,30.122 8.245,31.806 8.245,34.329C8.245,37.695 10.265,38.536 13.967,40.555C17.501,42.574 22.044,44.258 22.044,50.147C22.044,55.869 17.164,59.403 11.611,59.403C10.433,59.403 2.692,59.403 2.692,59.403L2.692,47.792L3.87,47.792C5.385,56.542 9.087,58.057 11.611,58.057C14.809,58.057 16.322,56.037 16.322,53.177C16.154,49.474 13.631,48.128 10.097,46.277C5.049,43.416 2.692,42.069 2.692,37.358C2.86,33.319 6.059,30.795 9.592,29.786C2.188,28.944 0,22.214 0.168,14.977C0.168,7.741 4.375,0 12.62,0C16.322,0 20.361,0 20.361,0Z" style="fill:white;"/>
        </g>
    </g>
</svg>
