<?xml version="1.0" encoding="UTF-8" standalone="no"?>
<!DOCTYPE svg PUBLIC "-//W3C//DTD SVG 1.1//EN" "http://www.w3.org/Graphics/SVG/1.1/DTD/svg11.dtd">
<svg width="100%" height="100%" viewBox="0 0 260 120" version="1.1" xmlns="http://www.w3.org/2000/svg" xmlns:xlink="http://www.w3.org/1999/xlink" xml:space="preserve" xmlns:serif="http://www.serif.com/" style="fill-rule:evenodd;clip-rule:evenodd;stroke-linejoin:round;stroke-miterlimit:1.41421;">
    <g transform="matrix(1,0,0,1,0,-15)">
        <g transform="matrix(1,0,0,1,-6.99833,12.6537)">
            <path d="M141.482,107.937C141.46,107.903 141.442,107.872 141.42,107.838C141.414,107.848 141.409,107.859 141.403,107.869C141.409,107.871 141.488,107.946 141.482,107.937" style="fill:white;fill-rule:nonzero;"/>
        </g>
        <g transform="matrix(1,0,0,1,-6.99833,12.6537)">
            <path d="M114.991,107.574L112.738,107.574L112.738,100.83L112.738,98.314C112.738,98.314 115.196,98.314 115.661,98.314C119.199,98.314 121.128,99.227 121.128,103.022C121.128,106.902 117.771,107.574 114.991,107.574M123.479,111.662C122.095,110.182 120.883,108.6 119.768,108.161C121.607,107.682 124.328,105.655 124.328,102.827C124.328,99.723 122.417,96.783 116.187,96.783C115.454,96.783 108.578,96.783 108.578,96.783C108.935,96.887 109.182,97.012 109.358,97.227C109.691,97.636 109.806,98.309 109.823,99.439L109.828,115.112C109.807,116.241 109.694,116.908 109.357,117.321C109.183,117.534 108.94,117.665 108.587,117.767L113.981,117.767C113.63,117.664 113.384,117.534 113.21,117.321C112.873,116.908 112.764,116.241 112.741,115.112L112.738,109.064L114.046,109.064C114.946,109.064 116.062,109.054 116.803,109.186C117.801,109.366 118.548,110.7 120.01,112.163L122.203,114.356C125.158,117.314 128.054,118.867 132.849,118.131C129.122,118.409 123.479,111.662 123.479,111.662" style="fill:white;fill-rule:nonzero;"/>
        </g>
        <g transform="matrix(1,0,0,1,-6.99833,12.6537)">
            <path d="M74.702,96.781C75.057,96.883 75.303,97.015 75.478,97.227C75.9,97.738 75.927,98.165 75.945,99.441L75.949,113.12L62.144,96.781L57.864,96.781C58.221,96.883 58.469,97.015 58.643,97.227C58.978,97.636 59.093,98.64 59.11,99.77L59.11,115.112C59.092,116.239 58.978,116.908 58.643,117.321C58.469,117.534 58.221,117.665 57.868,117.765L62.031,117.765C61.677,117.664 61.416,117.534 61.239,117.321C60.904,116.908 60.789,116.239 60.77,115.112L60.77,99.646L76.106,117.764L77.603,117.764L77.603,99.44C77.624,98.308 77.739,97.635 78.076,97.226C78.25,97.015 78.498,96.882 78.853,96.78L74.702,96.78L74.702,96.781Z" style="fill:white;fill-rule:nonzero;"/>
        </g>
        <g transform="matrix(1,0,0,1,-6.54411,12.394)">
            <rect x="262.004" y="98.216" width="0.008" height="0.004" style="fill:white;"/>
        </g>
        <g transform="matrix(1,0,0,1,-6.54411,13.202)">
            <path d="M41.981,98.486C43.3,101.968 45.074,106.673 46.461,110.397L37.498,110.397C38.832,106.819 41.304,100.288 41.981,98.486M36.195,117.765C36.124,117.745 36.053,117.717 35.985,117.695C35.894,117.657 35.807,117.617 35.734,117.574C35.456,117.389 35.244,117.161 35.272,116.716C35.287,116.454 36.594,112.844 36.941,111.906L47.018,111.906C47.621,113.528 48.23,115.195 48.509,115.993C48.617,116.324 48.697,116.595 48.702,116.716C48.73,117.161 48.52,117.39 48.24,117.574C48.167,117.617 48.082,117.657 47.99,117.695C47.924,117.717 47.852,117.746 47.778,117.765L53.166,117.765C52.359,117.506 51.945,116.869 51.355,115.359L44.322,96.777L40.662,96.777C40.515,97.171 33.903,114.694 33.897,114.707C33.169,116.692 32.761,117.472 31.847,117.765L36.195,117.765Z" style="fill:white;fill-rule:nonzero;"/>
        </g>
        <g transform="matrix(1,0,0,1,-6.54411,13.202)">
            <path d="M191.401,96.781C191.474,96.802 191.544,96.832 191.609,96.856C191.7,96.894 191.785,96.932 191.86,96.974C192.139,97.162 192.436,97.439 192.323,97.832C192.276,98.005 188.529,108.24 186.616,113.378C184.367,106.848 181.488,98.068 181.488,97.743C181.488,97.236 181.675,96.937 182.121,96.781L177.332,96.781C177.917,96.995 178.302,97.458 178.663,98.378C177.893,100.55 174.896,108.956 173.236,113.41C170.991,106.873 168.024,98.066 167.976,97.743C167.904,97.238 168.163,96.937 168.617,96.781L163.822,96.781C164.475,97.019 164.879,97.564 165.272,98.709L171.847,117.765L173.367,117.767C173.578,117.208 173.822,116.568 174.084,115.869C175.828,111.262 178.522,104.115 179.571,101.332L185.233,117.766L186.734,117.768C186.946,117.2 193.484,99.858 193.49,99.845C194.221,97.856 194.63,97.075 195.548,96.782L191.401,96.782L191.401,96.781Z" style="fill:white;fill-rule:nonzero;"/>
        </g>
        <g transform="matrix(1,0,0,1,-6.54411,13.202)">
            <path d="M142.679,117.32C142.345,116.907 142.231,116.238 142.212,115.111L142.212,109.604C142.212,109.604 149.12,99.232 149.2,99.106C150.219,97.563 150.627,96.909 151.517,96.782L151.517,96.78L147.219,96.78L147.219,96.782L147.221,96.782C147.275,96.782 147.332,96.788 147.388,96.801C147.77,96.879 148.075,97.217 148.058,97.628C148.045,97.917 147.844,98.199 147.844,98.199C147.844,98.199 142.286,106.529 141.42,107.838C141.442,107.871 141.409,107.871 141.403,107.869C141.409,107.859 141.414,107.849 141.42,107.838C138.52,103.282 135.472,98.501 135.345,98.278C135.12,97.892 135.039,97.613 135.06,97.401C135.075,97.099 135.29,96.853 135.576,96.787C135.576,96.787 135.581,96.783 135.583,96.781L130.11,96.781C130.853,96.866 131.4,97.304 132.058,98.327L139.295,109.588L139.295,115.111C139.278,116.238 139.165,116.907 138.829,117.32C138.659,117.533 138.407,117.664 138.053,117.764L143.457,117.764C143.103,117.664 142.855,117.533 142.679,117.32" style="fill:white;fill-rule:nonzero;"/>
        </g>
        <g transform="matrix(1,0,0,1,-6.54411,13.202)">
            <path d="M27.846,112.501C27.617,112.851 27.235,113.399 26.6,114.038L26.558,114.082C26.524,114.113 26.496,114.144 26.467,114.175C26.429,114.206 26.391,114.244 26.352,114.279L26.324,114.306C25.994,114.61 25.641,114.895 25.276,115.149L25.226,115.184C25.186,115.209 25.143,115.24 25.102,115.267C25.059,115.296 25.013,115.323 24.972,115.35L24.929,115.38C23.5,116.276 21.857,116.778 20.175,116.819C17.629,116.887 15.212,115.939 13.367,114.158C11.52,112.375 10.594,109.7 10.533,107.353C10.437,103.725 12.178,100.396 15.296,98.636L15.322,98.62C15.334,98.612 15.345,98.607 15.357,98.601L15.376,98.586C15.431,98.558 15.488,98.529 15.543,98.503C16.815,97.83 18.193,97.467 19.638,97.425C19.645,97.425 19.655,97.425 19.662,97.425C19.707,97.425 19.751,97.425 19.79,97.422C19.833,97.422 19.873,97.422 19.913,97.422C22.912,97.422 25.763,98.769 27.561,100.885L27.141,97.304C26.516,97.479 25.797,97.246 24.74,96.919C23.277,96.458 21.73,96.182 20.127,96.138C20.117,96.138 20.11,96.138 20.101,96.138C20.042,96.136 19.988,96.136 19.931,96.136C19.908,96.136 19.882,96.136 19.857,96.136C19.817,96.132 19.774,96.132 19.732,96.132L19.662,96.132C18.962,96.136 18.267,96.181 17.592,96.266C17.592,96.266 17.59,96.266 17.587,96.266C17.558,96.267 17.533,96.271 17.505,96.277C17.216,96.317 16.934,96.366 16.662,96.423L16.596,96.434C14.48,96.892 12.537,97.886 10.977,99.304C9.419,100.718 8.305,102.65 7.759,104.59L7.747,104.635C7.726,104.711 7.707,104.779 7.69,104.851L7.679,104.908C7.662,104.972 7.643,105.037 7.63,105.105C7.62,105.137 7.612,105.175 7.607,105.211C7.598,105.251 7.59,105.294 7.581,105.336L7.575,105.362C7.569,105.391 7.564,105.419 7.558,105.449C7.546,105.514 7.535,105.582 7.522,105.65C7.517,105.688 7.511,105.726 7.501,105.762L7.501,105.775C7.495,105.81 7.49,105.845 7.484,105.881C7.479,105.924 7.473,105.968 7.467,106.01C7.461,106.026 7.461,106.04 7.461,106.055L7.455,106.085C7.444,106.178 7.433,106.274 7.427,106.368L7.421,106.394C7.421,106.411 7.421,106.428 7.415,106.445C7.415,106.492 7.409,106.549 7.403,106.594C7.399,106.626 7.399,106.65 7.398,106.681L7.398,106.685C7.395,106.746 7.389,106.804 7.387,106.863C7.383,106.924 7.381,106.985 7.381,107.045C7.377,107.071 7.377,107.093 7.377,107.122L7.377,107.15C7.377,107.204 7.375,107.256 7.375,107.308C7.375,107.34 7.375,107.37 7.375,107.399C7.375,107.494 7.375,107.572 7.377,107.646C7.381,107.709 7.383,107.774 7.387,107.838L7.387,107.854C7.389,107.908 7.393,107.964 7.395,108.016C7.398,108.081 7.403,108.142 7.409,108.206L7.415,108.247C7.415,108.285 7.421,108.323 7.421,108.356L7.427,108.394C7.433,108.475 7.444,108.556 7.455,108.647L7.461,108.703C7.467,108.75 7.473,108.792 7.482,108.837C7.489,108.898 7.495,108.956 7.506,109.014C7.51,109.037 7.512,109.062 7.518,109.083L7.521,109.104C7.534,109.175 7.545,109.242 7.557,109.313L7.557,109.325C7.574,109.42 7.597,109.507 7.617,109.594C8.167,112.1 9.512,114.441 11.669,116.042C11.876,116.194 12.085,116.341 12.302,116.479C12.37,116.521 12.438,116.562 12.512,116.61C12.523,116.616 12.535,116.621 12.546,116.627C12.61,116.665 12.673,116.7 12.737,116.74C12.741,116.744 12.746,116.748 12.752,116.748C14.666,117.837 16.953,118.389 19.199,118.41L19.401,118.41C19.618,118.4 19.838,118.396 20.053,118.381L20.554,118.349L20.777,118.329C20.799,118.329 20.822,118.323 20.849,118.321L20.919,118.315C20.941,118.313 20.968,118.309 20.987,118.305L21.125,118.293C21.148,118.289 21.17,118.285 21.187,118.277L21.206,118.277C21.223,118.277 21.244,118.273 21.261,118.269L21.46,118.246L21.773,118.198C21.791,118.194 21.816,118.188 21.836,118.186L21.898,118.177C21.916,118.171 21.938,118.167 21.955,118.167C21.974,118.163 21.991,118.157 22.013,118.153L22.307,118.095L22.955,117.948C23.123,117.91 23.28,117.869 23.432,117.833L23.449,117.827C23.562,117.799 23.67,117.77 23.782,117.742L23.973,117.699C23.995,117.693 24.016,117.687 24.033,117.684L24.148,117.655C24.165,117.65 24.182,117.648 24.201,117.644L24.401,117.601C24.417,117.599 24.433,117.595 24.45,117.593L24.53,117.579L24.815,117.531L24.98,117.516C24.997,117.513 25.012,117.511 25.025,117.511L25.065,117.507C25.077,117.507 25.095,117.505 25.108,117.505L25.231,117.495C25.245,117.495 25.26,117.495 25.276,117.495L25.484,117.493L25.573,117.493L25.84,117.511C25.852,117.511 25.867,117.511 25.88,117.513L25.931,117.518C25.952,117.519 25.971,117.519 25.995,117.523L26.023,117.529C26.051,117.531 26.081,117.535 26.11,117.541L26.222,117.559C26.222,117.559 26.721,116.602 27.16,115.293C27.729,113.597 27.851,112.517 27.846,112.501" style="fill:white;fill-rule:nonzero;"/>
        </g>
        <g transform="matrix(1,0,0,1,-6.54411,13.202)">
            <path d="M92.868,98.486C94.189,101.968 95.965,106.673 97.35,110.397L88.389,110.397C89.722,106.819 92.191,100.288 92.868,98.486M87.084,117.765C87.012,117.745 86.94,117.717 86.87,117.695C86.779,117.657 86.696,117.617 86.625,117.574C86.343,117.389 86.135,117.161 86.158,116.716C86.175,116.454 87.479,112.844 87.828,111.906L97.906,111.906C98.507,113.528 99.119,115.195 99.396,115.993C99.503,116.324 99.586,116.595 99.592,116.716C99.616,117.161 99.406,117.39 99.127,117.574C99.053,117.617 98.97,117.657 98.879,117.695C98.813,117.717 98.743,117.746 98.666,117.765L104.058,117.765C103.246,117.506 102.835,116.869 102.246,115.359L95.211,96.777L91.551,96.777C91.404,97.171 84.797,114.694 84.789,114.707C84.056,116.692 83.653,117.472 82.734,117.765L87.084,117.765Z" style="fill:white;fill-rule:nonzero;"/>
        </g>
        <g transform="matrix(1,0,0,1,-34.4423,13.202)">
            <path d="M235.066,98.486C236.383,101.968 238.162,106.673 239.546,110.397L230.586,110.397C231.918,106.819 234.387,100.288 235.066,98.486M229.283,117.765C229.21,117.745 229.139,117.717 229.068,117.695C228.977,117.657 228.894,117.617 228.821,117.574C228.543,117.389 228.33,117.161 228.357,116.716C228.371,116.454 229.678,112.844 230.023,111.906L240.104,111.906C240.704,113.528 241.317,115.195 241.592,115.993C241.704,116.324 241.783,116.595 241.789,116.716C241.811,117.161 241.603,117.39 241.322,117.574C241.251,117.617 241.168,117.657 241.077,117.695C241.01,117.717 240.94,117.746 240.865,117.765L246.253,117.765C245.44,117.506 245.032,116.869 244.442,115.359L237.409,96.777L233.746,96.777C233.6,97.171 226.992,114.694 226.987,114.707C226.252,116.692 225.846,117.472 224.932,117.765L229.283,117.765Z" style="fill:white;fill-rule:nonzero;"/>
        </g>
        <g transform="matrix(1,0,0,1,-34.4423,13.202)">
            <path d="M256.675,107.574L254.42,107.574L254.42,100.83L254.42,98.314C254.42,98.314 256.873,98.314 257.341,98.314C260.884,98.314 262.808,99.227 262.808,103.022C262.808,106.902 259.448,107.574 256.675,107.574M265.155,111.662C263.774,110.182 262.564,108.6 261.446,108.161C263.285,107.682 266.002,105.655 266.002,102.827C266.002,99.723 264.095,96.783 257.862,96.783C257.135,96.783 250.257,96.783 250.257,96.783C250.614,96.887 250.861,97.012 251.035,97.227C251.371,97.636 251.485,98.309 251.501,99.439L251.507,115.112C251.487,116.241 251.373,116.908 251.041,117.321C250.865,117.534 250.62,117.665 250.269,117.767L255.659,117.767C255.313,117.664 255.061,117.534 254.891,117.321C254.556,116.908 254.442,116.241 254.42,115.112L254.42,109.064L255.726,109.064C256.622,109.064 257.74,109.054 258.481,109.186C259.482,109.366 260.23,110.7 261.688,112.163L263.88,114.356C266.84,117.314 269.734,118.867 274.53,118.131C270.804,118.409 265.155,111.662 265.155,111.662" style="fill:white;fill-rule:nonzero;"/>
        </g>
        <g transform="matrix(1,0,0,1,-6.83289,13.202)">
            <path d="M256.675,107.574L254.42,107.574L254.42,100.83L254.42,98.314C254.42,98.314 256.873,98.314 257.341,98.314C260.884,98.314 262.808,99.227 262.808,103.022C262.808,106.902 259.448,107.574 256.675,107.574M258.808,109.025C259.823,108.973 260.701,108.621 261.581,108.392C263.42,107.913 266.002,105.655 266.002,102.827C266.002,99.723 264.095,96.783 257.862,96.783C257.135,96.783 250.257,96.783 250.257,96.783C250.614,96.887 250.861,97.012 251.035,97.227C251.371,97.636 251.485,98.309 251.501,99.439L251.507,115.112C251.487,116.241 251.373,116.908 251.041,117.321C250.865,117.534 250.62,117.665 250.269,117.767L255.659,117.767C255.313,117.664 255.061,117.534 254.891,117.321C254.556,116.908 254.442,116.241 254.42,115.112L254.42,109.064L255.726,109.064C256.622,109.064 257.382,109.099 258.808,109.025Z" style="fill:white;fill-rule:nonzero;"/>
        </g>
        <g transform="matrix(1,0,0,1,-20,13.202)">
            <path d="M174.507,27.5L171.945,27.5C173.179,27.5 174.174,28.496 174.174,29.728C174.174,29.728 174.174,75.317 174.174,75.394L170.518,73.264C170.518,72.87 170.518,29.653 170.514,29.628C170.467,28.545 169.644,27.663 168.587,27.524C168.488,27.509 165.752,27.503 165.752,27.503C166.967,27.503 167.956,28.474 167.982,29.685L167.982,71.801L164.24,69.643L164.24,10.318C164.234,10.193 164.163,10.082 164.062,10.019C164.062,10.019 162.701,9.236 162.644,9.205C162.369,9.066 162.053,8.989 161.727,8.989C161.373,8.989 161.047,9.075 160.754,9.233C160.75,9.236 150.16,15.348 150.16,15.348C149.606,15.71 149.158,16.31 149.158,17.008L149.158,62.118C149.158,62.306 149.045,62.472 148.884,62.552L145.411,64.557L145.411,14.057C145.411,13.869 145.525,13.704 145.683,13.625L157.025,7.084C157.308,6.956 157.624,6.882 157.954,6.882C158.391,6.878 158.797,7.003 159.137,7.219L159.143,7.219L156.46,5.673C156.153,5.508 155.797,5.414 155.418,5.414C155.081,5.414 154.765,5.492 154.476,5.625C154.458,5.632 143.873,11.736 143.873,11.736C143.321,12.099 142.871,12.7 142.871,13.401L142.871,66.018L139.137,68.174L139.136,10.459C139.141,10.265 139.251,10.105 139.412,10.022L150.667,3.515C150.971,3.352 151.319,3.265 151.688,3.265C152.125,3.265 152.533,3.39 152.876,3.603L150.199,2.06C149.889,1.892 149.53,1.798 149.154,1.798C148.772,1.798 148.418,1.895 148.103,2.063C148.103,2.063 137.669,8.084 137.603,8.13C137.051,8.49 136.601,9.087 136.601,9.782L136.601,69.64L132.865,71.798C132.865,64.251 132.865,29.731 132.865,29.729C132.865,28.497 133.861,27.501 135.092,27.501L132.557,27.501C131.332,27.501 130.341,28.486 130.324,29.705L130.324,73.26L126.605,75.401C126.605,75.401 126.605,29.73 126.605,29.727C126.605,28.495 127.59,27.499 128.821,27.499L126.28,27.499C125.059,27.499 124.064,28.484 124.053,29.703C124.053,29.703 124.058,76.682 124.058,76.684C124.058,76.69 124.058,76.709 124.058,76.709C124.066,76.837 124.138,76.947 124.24,77.006C124.24,77.006 125.602,77.794 125.659,77.824C125.932,77.964 126.246,78.043 126.577,78.043C126.929,78.043 127.26,77.953 127.545,77.793C127.551,77.793 150.902,64.318 150.936,64.298C151.411,63.983 151.694,63.468 151.7,62.91C151.7,62.853 151.694,17.666 151.694,17.666C151.7,17.478 151.815,17.313 151.973,17.23L155.431,15.242L155.441,65.743C155.435,65.932 155.325,66.097 155.162,66.177L131.429,79.861C131.106,80.05 130.723,80.16 130.32,80.16C129.883,80.16 129.477,80.035 129.135,79.822L131.806,81.367C132.12,81.535 132.475,81.623 132.851,81.627C133.335,81.631 133.97,81.332 133.97,81.332C133.97,81.332 157.004,68.051 157.024,68.04C157.768,67.591 157.974,66.777 157.974,66.407C157.974,66.4 157.968,14.011 157.968,13.779L161.702,11.627L161.702,69.36C161.696,69.553 161.584,69.715 161.424,69.797L137.681,83.467C137.354,83.654 136.972,83.766 136.564,83.766C136.129,83.766 135.724,83.641 135.38,83.426L138.053,84.969C138.362,85.133 138.715,85.229 139.092,85.229L139.097,85.229C139.438,85.229 139.763,85.154 140.055,85.016C140.108,84.992 150.451,79.047 150.451,79.047L160.6,84.902C160.923,85.093 161.306,85.202 161.709,85.202C162.088,85.202 162.445,85.108 162.756,84.942L165.428,83.395C165.053,83.614 164.683,83.739 164.243,83.739C163.84,83.739 163.459,83.629 163.132,83.432L152.992,77.583L156.704,75.449L166.832,81.292C167.161,81.482 167.537,81.591 167.947,81.591C168.321,81.591 168.676,81.497 168.988,81.33L171.666,79.784C171.297,79.999 170.92,80.124 170.481,80.124C170.077,80.124 169.695,80.018 169.365,79.827L159.244,73.985L162.973,71.837L173.244,77.791C173.531,77.946 173.864,78.037 174.212,78.037C174.548,78.037 174.859,77.957 175.134,77.817C175.192,77.791 176.549,77.001 176.549,77.001C176.655,76.94 176.723,76.835 176.735,76.706C176.735,76.706 176.735,76.685 176.735,76.68L176.741,29.727C176.738,28.496 175.739,27.5 174.507,27.5" style="fill:white;fill-rule:nonzero;"/>
        </g>
    </g>
</svg>
