<svg id="Layer_1" data-name="Layer 1" xmlns="http://www.w3.org/2000/svg" viewBox="0 0 1653.44 1790.99"><title>logo_big</title><polygon points="309.08 1790.99 247.26 1790.99 1591.62 0 1653.44 0 309.08 1790.99" style="fill:#35e1fd"/><polygon points="247.27 1790.99 185.45 1790.99 1529.8 0 1591.62 0 247.27 1790.99" style="fill:#72e3a1"/><polygon points="185.45 1790.99 123.63 1790.99 1467.99 0 1529.8 0 185.45 1790.99" style="fill:#ffff8f"/><polygon points="123.63 1790.99 61.82 1790.99 1406.17 0 1467.99 0 123.63 1790.99" style="fill:#ff8c34"/><polygon points="61.82 1790.99 0 1790.99 1344.36 0 1406.17 0 61.82 1790.99" style="fill:#ff696b"/><rect x="21.69" y="1005.76" width="922.66" height="510.56" style="fill:none"/><rect x="214.82" y="1165.82" width="75.55" height="75.56" style="fill:#515050"/><rect x="214.82" y="1162.39" width="68.69" height="72.12" style="fill:#d9d9d9"/><rect x="214.82" y="1251.69" width="75.55" height="75.56" style="fill:#515050"/><rect x="214.82" y="1248.25" width="68.69" height="72.12" style="fill:#d9d9d9"/><rect x="300.68" y="1165.82" width="75.56" height="75.56" style="fill:#515050"/><rect x="300.68" y="1162.39" width="68.69" height="72.12" style="fill:#eeedee"/><rect x="386.54" y="1165.82" width="75.55" height="75.56" style="fill:#515050"/><rect x="386.54" y="1162.39" width="68.68" height="72.12" style="fill:#eeedee"/><rect x="472.4" y="1165.82" width="75.55" height="75.56" style="fill:#515050"/><rect x="472.4" y="1162.39" width="68.69" height="72.12" style="fill:#eeedee"/><rect x="558.26" y="1165.82" width="75.55" height="75.56" style="fill:#515050"/><rect x="558.26" y="1162.39" width="68.68" height="72.12" style="fill:#eeedee"/><rect x="644.12" y="1165.82" width="75.55" height="75.56" style="fill:#515050"/><rect x="644.12" y="1162.39" width="68.68" height="72.12" style="fill:#eeedee"/><rect x="729.98" y="1165.82" width="75.55" height="75.56" style="fill:#515050"/><rect x="729.98" y="1162.39" width="68.69" height="72.12" style="fill:#eeedee"/><rect x="815.84" y="1165.82" width="75.55" height="75.56" style="fill:#515050"/><rect x="815.84" y="1162.39" width="68.69" height="72.12" style="fill:#d9d9d9"/><text transform="translate(316.82 1217.18)" style="font-size:48.079200744628906px;font-family:ArialRoundedMTBold, Arial Rounded MT Bold">U</text><text transform="translate(404.9 1217.18)" style="font-size:48.079200744628906px;font-family:ArialRoundedMTBold, Arial Rounded MT Bold">P</text><text transform="translate(499.25 1217.18)" style="font-size:48.079200744628906px;font-family:ArialRoundedMTBold, Arial Rounded MT Bold">I</text><text transform="translate(577.63 1217.18)" style="font-size:48.079200744628906px;font-family:ArialRoundedMTBold, Arial Rounded MT Bold">T</text><text transform="translate(660.26 1217.18)" style="font-size:48.079200744628906px;font-family:ArialRoundedMTBold, Arial Rounded MT Bold">U</text><text transform="translate(748.34 1217.18)" style="font-size:48.079200744628906px;font-family:ArialRoundedMTBold, Arial Rounded MT Bold">P</text><text y="95.38"></text><rect x="300.68" y="1251.68" width="75.56" height="75.56" style="fill:#515050"/><rect x="300.68" y="1248.25" width="68.69" height="72.12" style="fill:#eeedee"/><rect x="386.54" y="1251.68" width="75.55" height="75.56" style="fill:#515050"/><rect x="386.54" y="1248.25" width="68.68" height="72.12" style="fill:#eeedee"/><rect x="472.4" y="1251.68" width="75.55" height="75.56" style="fill:#515050"/><rect x="472.4" y="1248.25" width="68.69" height="72.12" style="fill:#eeedee"/><rect x="558.26" y="1251.68" width="75.55" height="75.56" style="fill:#515050"/><rect x="558.26" y="1248.25" width="68.68" height="72.12" style="fill:#eeedee"/><rect x="644.12" y="1251.68" width="75.55" height="75.56" style="fill:#515050"/><rect x="644.12" y="1248.25" width="68.68" height="72.12" style="fill:#eeedee"/><rect x="729.98" y="1251.68" width="75.55" height="75.56" style="fill:#515050"/><rect x="729.98" y="1248.25" width="68.69" height="72.12" style="fill:#eeedee"/><rect x="815.84" y="1251.68" width="75.55" height="75.56" style="fill:#515050"/><rect x="815.84" y="1248.25" width="68.69" height="72.12" style="fill:#eeedee"/><text transform="translate(317.79 1303.04)" style="font-size:48.079200744628906px;font-family:ArialRoundedMTBold, Arial Rounded MT Bold">R</text><text transform="translate(404.9 1303.04)" style="font-size:48.079200744628906px;font-family:ArialRoundedMTBold, Arial Rounded MT Bold">E</text><text transform="translate(489.01 1303.04)" style="font-size:48.079200744628906px;font-family:ArialRoundedMTBold, Arial Rounded MT Bold">C</text><text transform="translate(573.63 1303.04)" style="font-size:48.079200744628906px;font-family:ArialRoundedMTBold, Arial Rounded MT Bold">O</text><text transform="translate(661.23 1303.04)" style="font-size:48.079200744628906px;font-family:ArialRoundedMTBold, Arial Rounded MT Bold">R</text><text transform="translate(746.59 1303.04)" style="font-size:48.079200744628906px;font-family:ArialRoundedMTBold, Arial Rounded MT Bold">D</text><text transform="translate(834.2 1303.04)" style="font-size:48.079200744628906px;font-family:ArialRoundedMTBold, Arial Rounded MT Bold">S</text></svg>