<svg id="Layer_1" data-name="Layer 1" xmlns="http://www.w3.org/2000/svg" xmlns:xlink="http://www.w3.org/1999/xlink" viewBox="0 0 802.18 510.56"><defs><clipPath id="clip-path"><rect x="-135.7" width="922.66" height="510.56" style="fill:none"/></clipPath></defs><title>logo_light</title><g style="clip-path:url(#clip-path)"><polygon points="151.69 785.23 89.88 785.23 831.67 -203.87 893.49 -203.87 151.69 785.23" style="fill:#35e1fd"/><polygon points="89.88 785.22 28.06 785.22 769.86 -203.87 831.67 -203.87 89.88 785.22" style="fill:#72e3a1"/><polygon points="28.06 785.22 -33.75 785.22 708.04 -203.87 769.86 -203.87 28.06 785.22" style="fill:#ffff8f"/><polygon points="-33.75 785.22 -95.57 785.22 646.22 -203.87 708.04 -203.87 -33.75 785.22" style="fill:#ff8c34"/><polygon points="-95.57 785.22 -157.39 785.22 584.41 -203.87 646.22 -203.87 -95.57 785.22" style="fill:#ff696b"/></g><path d="M133,232.18H57.44V156.62H133Zm0,10.31H57.44V318H133Zm85.86-85.87H143.29v75.56h75.56Zm85.86,0H229.16v75.56h75.55Zm85.86,0H315v75.56h75.55Zm85.86,0H400.88v75.56h75.55Zm85.86,0H486.73v75.56h75.55Zm85.86,0H572.59v75.56h75.55Zm85.86,0H658.45v75.56H734ZM218.85,242.48H143.29V318h75.56Zm85.86,0H229.16V318h75.55Zm85.86,0H315V318h75.55Zm85.86,0H400.88V318h75.55Zm85.86,0H486.73V318h75.55Zm85.86,0H572.59V318h75.55Zm85.86,0H658.45V318H734Z" style="fill:#fff"/><path d="M126.12,225.31H57.44V153.19h68.69Zm0,13.75H57.44v72.12h68.69ZM212,153.19H143.29v72.12H212Zm85.86,0H229.16v72.12h68.68Zm85.86,0H315v72.12H383.7Zm85.86,0H400.88v72.12h68.68Zm85.86,0H486.73v72.12h68.68Zm85.86,0H572.59v72.12h68.69Zm85.86,0H658.45v72.12h68.69ZM212,239H143.29v72.12H212Zm85.86,0H229.16v72.12h68.68Zm85.86,0H315v72.12H383.7Zm85.86,0H400.88v72.12h68.68Zm85.86,0H486.73v72.12h68.68Zm85.86,0H572.59v72.12h68.69Zm85.86,0H658.45v72.12h68.69Z" style="fill:#d9d9d9"/><text transform="translate(159.43 207.98)" style="font-size:48.079200744628906px;font-family:ArialRoundedMTBold, Arial Rounded MT Bold">U</text><text transform="translate(247.52 207.98)" style="font-size:48.079200744628906px;font-family:ArialRoundedMTBold, Arial Rounded MT Bold">P</text><text transform="translate(341.86 207.98)" style="font-size:48.079200744628906px;font-family:ArialRoundedMTBold, Arial Rounded MT Bold">I</text><text transform="translate(420.24 207.98)" style="font-size:48.079200744628906px;font-family:ArialRoundedMTBold, Arial Rounded MT Bold">T</text><text transform="translate(502.87 207.98)" style="font-size:48.079200744628906px;font-family:ArialRoundedMTBold, Arial Rounded MT Bold">U</text><text transform="translate(590.96 207.98)" style="font-size:48.079200744628906px;font-family:ArialRoundedMTBold, Arial Rounded MT Bold">P</text><text transform="translate(160.4 293.84)" style="font-size:48.079200744628906px;font-family:ArialRoundedMTBold, Arial Rounded MT Bold">R</text><text transform="translate(247.52 293.84)" style="font-size:48.079200744628906px;font-family:ArialRoundedMTBold, Arial Rounded MT Bold">E</text><text transform="translate(331.62 293.84)" style="font-size:48.079200744628906px;font-family:ArialRoundedMTBold, Arial Rounded MT Bold">C</text><text transform="translate(416.24 293.84)" style="font-size:48.079200744628906px;font-family:ArialRoundedMTBold, Arial Rounded MT Bold">O</text><text transform="translate(503.84 293.84)" style="font-size:48.079200744628906px;font-family:ArialRoundedMTBold, Arial Rounded MT Bold">R</text><text transform="translate(589.2 293.84)" style="font-size:48.079200744628906px;font-family:ArialRoundedMTBold, Arial Rounded MT Bold">D</text><text transform="translate(676.81 293.84)" style="font-size:48.079200744628906px;font-family:ArialRoundedMTBold, Arial Rounded MT Bold">S</text></svg>