<svg id="Layer_1" data-name="Layer 1" xmlns="http://www.w3.org/2000/svg" viewBox="0 0 676.57 161.43"><title>logo_plain</title><rect x="-193.14" y="-160.06" width="922.66" height="510.56" style="fill:none"/><rect width="75.55" height="75.56" style="fill:#515050"/><rect y="-3.43" width="68.69" height="72.12" style="fill:#d9d9d9"/><rect y="85.87" width="75.55" height="75.56" style="fill:#515050"/><rect y="82.43" width="68.69" height="72.12" style="fill:#d9d9d9"/><rect x="85.86" width="75.56" height="75.56" style="fill:#515050"/><rect x="85.86" y="-3.43" width="68.69" height="72.12" style="fill:#eeedee"/><rect x="171.72" width="75.55" height="75.56" style="fill:#515050"/><rect x="171.72" y="-3.43" width="68.68" height="72.12" style="fill:#eeedee"/><rect x="257.58" width="75.55" height="75.56" style="fill:#515050"/><rect x="257.58" y="-3.43" width="68.69" height="72.12" style="fill:#eeedee"/><rect x="343.44" width="75.55" height="75.56" style="fill:#515050"/><rect x="343.44" y="-3.43" width="68.68" height="72.12" style="fill:#eeedee"/><rect x="429.3" width="75.55" height="75.56" style="fill:#515050"/><rect x="429.3" y="-3.43" width="68.68" height="72.12" style="fill:#eeedee"/><rect x="515.16" width="75.55" height="75.56" style="fill:#515050"/><rect x="515.16" y="-3.43" width="68.69" height="72.12" style="fill:#eeedee"/><rect x="601.02" width="75.55" height="75.56" style="fill:#515050"/><rect x="601.02" y="-3.43" width="68.69" height="72.12" style="fill:#d9d9d9"/><text transform="translate(102 51.36)" style="font-size:48.079200744628906px;font-family:ArialRoundedMTBold, Arial Rounded MT Bold">U</text><text transform="translate(190.08 51.36)" style="font-size:48.079200744628906px;font-family:ArialRoundedMTBold, Arial Rounded MT Bold">P</text><text transform="translate(284.42 51.36)" style="font-size:48.079200744628906px;font-family:ArialRoundedMTBold, Arial Rounded MT Bold">I</text><text transform="translate(362.81 51.36)" style="font-size:48.079200744628906px;font-family:ArialRoundedMTBold, Arial Rounded MT Bold">T</text><text transform="translate(445.44 51.36)" style="font-size:48.079200744628906px;font-family:ArialRoundedMTBold, Arial Rounded MT Bold">U</text><text transform="translate(533.52 51.36)" style="font-size:48.079200744628906px;font-family:ArialRoundedMTBold, Arial Rounded MT Bold">P</text><rect x="85.86" y="85.86" width="75.56" height="75.56" style="fill:#515050"/><rect x="85.86" y="82.43" width="68.69" height="72.12" style="fill:#eeedee"/><rect x="171.72" y="85.86" width="75.55" height="75.56" style="fill:#515050"/><rect x="171.72" y="82.43" width="68.68" height="72.12" style="fill:#eeedee"/><rect x="257.58" y="85.86" width="75.55" height="75.56" style="fill:#515050"/><rect x="257.58" y="82.43" width="68.69" height="72.12" style="fill:#eeedee"/><rect x="343.44" y="85.86" width="75.55" height="75.56" style="fill:#515050"/><rect x="343.44" y="82.43" width="68.68" height="72.12" style="fill:#eeedee"/><rect x="429.3" y="85.86" width="75.55" height="75.56" style="fill:#515050"/><rect x="429.3" y="82.43" width="68.68" height="72.12" style="fill:#eeedee"/><rect x="515.16" y="85.86" width="75.55" height="75.56" style="fill:#515050"/><rect x="515.16" y="82.43" width="68.69" height="72.12" style="fill:#eeedee"/><rect x="601.02" y="85.86" width="75.55" height="75.56" style="fill:#515050"/><rect x="601.02" y="82.43" width="68.69" height="72.12" style="fill:#eeedee"/><text transform="translate(102.97 137.22)" style="font-size:48.079200744628906px;font-family:ArialRoundedMTBold, Arial Rounded MT Bold">R</text><text transform="translate(190.08 137.22)" style="font-size:48.079200744628906px;font-family:ArialRoundedMTBold, Arial Rounded MT Bold">E</text><text transform="translate(274.19 137.22)" style="font-size:48.079200744628906px;font-family:ArialRoundedMTBold, Arial Rounded MT Bold">C</text><text transform="translate(358.8 137.22)" style="font-size:48.079200744628906px;font-family:ArialRoundedMTBold, Arial Rounded MT Bold">O</text><text transform="translate(446.41 137.22)" style="font-size:48.079200744628906px;font-family:ArialRoundedMTBold, Arial Rounded MT Bold">R</text><text transform="translate(531.77 137.22)" style="font-size:48.079200744628906px;font-family:ArialRoundedMTBold, Arial Rounded MT Bold">D</text><text transform="translate(619.38 137.22)" style="font-size:48.079200744628906px;font-family:ArialRoundedMTBold, Arial Rounded MT Bold">S</text></svg>