<?xml version="1.0" encoding="UTF-8" standalone="no"?>
<!DOCTYPE svg PUBLIC "-//W3C//DTD SVG 1.1//EN" "http://www.w3.org/Graphics/SVG/1.1/DTD/svg11.dtd">
<svg width="100%" height="100%" viewBox="0 0 52 85" version="1.1" xmlns="http://www.w3.org/2000/svg" xmlns:xlink="http://www.w3.org/1999/xlink" xml:space="preserve" xmlns:serif="http://www.serif.com/" style="fill-rule:evenodd;clip-rule:evenodd;stroke-linejoin:round;stroke-miterlimit:1.41421;">
    <g transform="matrix(1,0,0,1,-124.741,-1.798)">
        <g>
            <path d="M174.507,27.5L171.945,27.5C173.179,27.5 174.174,28.496 174.174,29.728C174.174,29.728 174.174,75.317 174.174,75.394L170.518,73.264C170.518,72.87 170.518,29.653 170.514,29.628C170.467,28.545 169.644,27.663 168.587,27.524C168.488,27.509 165.752,27.503 165.752,27.503C166.967,27.503 167.956,28.474 167.982,29.685L167.982,71.801L164.24,69.643L164.24,10.318C164.234,10.193 164.163,10.082 164.062,10.019C164.062,10.019 162.701,9.236 162.644,9.205C162.369,9.066 162.053,8.989 161.727,8.989C161.373,8.989 161.047,9.075 160.754,9.233C160.75,9.236 150.16,15.348 150.16,15.348C149.606,15.71 149.158,16.31 149.158,17.008L149.158,62.118C149.158,62.306 149.045,62.472 148.884,62.552L145.411,64.557L145.411,14.057C145.411,13.869 145.525,13.704 145.683,13.625L157.025,7.084C157.308,6.956 157.624,6.882 157.954,6.882C158.391,6.878 158.797,7.003 159.137,7.219L159.143,7.219L156.46,5.673C156.153,5.508 155.797,5.414 155.418,5.414C155.081,5.414 154.765,5.492 154.476,5.625C154.458,5.632 143.873,11.736 143.873,11.736C143.321,12.099 142.871,12.7 142.871,13.401L142.871,66.018L139.137,68.174L139.136,10.459C139.141,10.265 139.251,10.105 139.412,10.022L150.667,3.515C150.971,3.352 151.319,3.265 151.688,3.265C152.125,3.265 152.533,3.39 152.876,3.603L150.199,2.06C149.889,1.892 149.53,1.798 149.154,1.798C148.772,1.798 148.418,1.895 148.103,2.063C148.103,2.063 137.669,8.084 137.603,8.13C137.051,8.49 136.601,9.087 136.601,9.782L136.601,69.64L132.865,71.798C132.865,64.251 132.865,29.731 132.865,29.729C132.865,28.497 133.861,27.501 135.092,27.501L132.557,27.501C131.332,27.501 130.341,28.486 130.324,29.705L130.324,73.26L126.605,75.401C126.605,75.401 126.605,29.73 126.605,29.727C126.605,28.495 127.59,27.499 128.821,27.499L126.28,27.499C125.059,27.499 124.064,28.484 124.053,29.703C124.053,29.703 124.058,76.682 124.058,76.684C124.058,76.69 124.058,76.709 124.058,76.709C124.066,76.837 124.138,76.947 124.24,77.006C124.24,77.006 125.602,77.794 125.659,77.824C125.932,77.964 126.246,78.043 126.577,78.043C126.929,78.043 127.26,77.953 127.545,77.793C127.551,77.793 150.902,64.318 150.936,64.298C151.411,63.983 151.694,63.468 151.7,62.91C151.7,62.853 151.694,17.666 151.694,17.666C151.7,17.478 151.815,17.313 151.973,17.23L155.431,15.242L155.441,65.743C155.435,65.932 155.325,66.097 155.162,66.177L131.429,79.861C131.106,80.05 130.723,80.16 130.32,80.16C129.883,80.16 129.477,80.035 129.135,79.822L131.806,81.367C132.12,81.535 132.475,81.623 132.851,81.627C133.335,81.631 133.97,81.332 133.97,81.332C133.97,81.332 157.004,68.051 157.024,68.04C157.768,67.591 157.974,66.777 157.974,66.407C157.974,66.4 157.968,14.011 157.968,13.779L161.702,11.627L161.702,69.36C161.696,69.553 161.584,69.715 161.424,69.797L137.681,83.467C137.354,83.654 136.972,83.766 136.564,83.766C136.129,83.766 135.724,83.641 135.38,83.426L138.053,84.969C138.362,85.133 138.715,85.229 139.092,85.229L139.097,85.229C139.438,85.229 139.763,85.154 140.055,85.016C140.108,84.992 150.451,79.047 150.451,79.047L160.6,84.902C160.923,85.093 161.306,85.202 161.709,85.202C162.088,85.202 162.445,85.108 162.756,84.942L165.428,83.395C165.053,83.614 164.683,83.739 164.243,83.739C163.84,83.739 163.459,83.629 163.132,83.432L152.992,77.583L156.704,75.449L166.832,81.292C167.161,81.482 167.537,81.591 167.947,81.591C168.321,81.591 168.676,81.497 168.988,81.33L171.666,79.784C171.297,79.999 170.92,80.124 170.481,80.124C170.077,80.124 169.695,80.018 169.365,79.827L159.244,73.985L162.973,71.837L173.244,77.791C173.531,77.946 173.864,78.037 174.212,78.037C174.548,78.037 174.859,77.957 175.134,77.817C175.192,77.791 176.549,77.001 176.549,77.001C176.655,76.94 176.723,76.835 176.735,76.706C176.735,76.706 176.735,76.685 176.735,76.68L176.741,29.727C176.738,28.496 175.739,27.5 174.507,27.5" style="fill:white;fill-rule:nonzero;"/>
        </g>
    </g>
</svg>
