<?xml version="1.0" encoding="UTF-8" standalone="no"?>
<!DOCTYPE svg PUBLIC "-//W3C//DTD SVG 1.1//EN" "http://www.w3.org/Graphics/SVG/1.1/DTD/svg11.dtd">
<svg width="100%" height="100%" viewBox="0 0 200 167" version="1.1" xmlns="http://www.w3.org/2000/svg" xmlns:xlink="http://www.w3.org/1999/xlink" xml:space="preserve" xmlns:serif="http://www.serif.com/" style="fill-rule:evenodd;clip-rule:evenodd;stroke-linejoin:round;stroke-miterlimit:1.41421;">
    <g transform="matrix(5.10762,0,0,-5.10762,192.176,87.5543)">
        <g id="g3095">
            <path id="path3143" d="M0,0C0.708,-0.519 1.434,-0.893 1.434,-1.727C1.434,-1.958 1.13,-2.201 0.448,-2.201C-0.075,-2.201 -0.642,-2.053 -0.901,-1.67C-1.119,-1.396 -0.806,-1.015 -0.996,-0.732C-1.136,-0.496 -1.475,-0.611 -1.681,-0.496C-1.938,-0.357 -1.966,-0.236 -2.134,0.114C-2.322,0.541 -2.958,1.249 -3.712,2.012C-4.358,2.652 -5.036,2.977 -5.353,2.952C-5.559,2.932 -5.633,2.932 -5.845,2.932C-6.382,2.932 -6.86,2.413 -7.636,2.084C-8.182,1.846 -8.496,1.706 -8.849,1.658L-8.962,1.516L-8.257,1.541C-7.594,1.541 -6.715,1.63 -6.057,1.63C-5.365,1.63 -5.036,1.025 -4.777,0.379C-4.259,-0.916 -3.477,-2.787 -2.564,-4.349C-2.105,-5.078 -1.735,-5.553 -1.735,-6.461C-1.735,-6.732 -1.754,-7.109 -2.134,-7.109C-2.649,-7.109 -3.975,-6.572 -3.975,-5.982C-3.975,-5.529 -3.622,-5.339 -3.622,-4.892C-3.622,-4.611 -4.045,-4.657 -4.139,-4.395C-4.474,-3 -4.877,-1.628 -5.652,-0.806C-6.057,-0.373 -6.108,-0.185 -6.504,-0.185C-6.715,-0.185 -6.935,-0.236 -7.123,-0.305C-8.207,-0.711 -9.648,-1.92 -11.446,-2.459C-12.132,-2.667 -12.25,-2.267 -12.96,-2.41L-12.912,-2.41C-13.48,-2.527 -13.939,-2.861 -14.712,-3.072C-15.805,-3.385 -17.669,-3.52 -19.163,-3.324C-20.223,-3.195 -21.594,-2.982 -22.182,-3C-22.632,-4.299 -23.602,-5.998 -25.021,-6.664C-25.78,-6.994 -26.013,-7.468 -25.78,-8.323C-25.492,-9.384 -24.549,-10.167 -24.049,-11.062C-23.602,-11.845 -22.867,-13.073 -22.089,-13.478C-21.312,-13.878 -20.84,-14.475 -20.84,-14.97C-20.84,-15.206 -20.934,-15.345 -21.173,-15.345L-22.727,-15.345C-22.966,-15.345 -23.084,-15.206 -23.132,-15.109C-23.348,-14.706 -23.2,-14.327 -23.485,-13.975C-23.7,-13.706 -23.862,-13.784 -24.121,-13.574C-24.596,-13.123 -24.244,-12.864 -24.596,-12.297C-25.588,-10.735 -26.013,-10.352 -26.847,-9.243C-27.315,-8.649 -27.882,-8.368 -27.882,-7.59C-27.882,-6.648 -26.937,-6.47 -26.96,-5.529C-27.573,-5.982 -28.281,-6.328 -29.374,-6.47C-29.516,-6.502 -29.89,-6.785 -30.056,-6.974C-30.433,-7.351 -30.576,-7.726 -30.626,-8.305C-30.737,-9.578 -31,-10.878 -30.839,-12.155C-30.626,-12.982 -30.485,-13.261 -29.801,-13.706C-29.374,-13.999 -28.872,-14.397 -28.83,-14.991C-28.83,-15.149 -28.872,-15.345 -29.106,-15.345L-30.788,-15.345C-30.956,-15.345 -31.103,-15.223 -31.147,-15.13C-31.332,-14.804 -31.211,-14.567 -31.285,-14.185C-31.448,-13.409 -32.331,-13.45 -32.331,-12.649C-32.331,-12.417 -32.185,-12.107 -32.16,-11.608C-32.11,-10.523 -31.786,-8.771 -32.11,-6.648C-32.254,-5.414 -30.977,-5.365 -30.316,-4.275C-29.912,-3.662 -30.032,-3.925 -29.801,-3.474C-29.561,-3 -29.609,-2.667 -29.63,-2.388C-29.63,-2.033 -29.989,-1.277 -29.748,0.26C-29.651,0.948 -29.322,1.63 -28.872,2.221C-28.872,2.246 -28.872,2.341 -29.017,2.341C-29.678,2.294 -29.678,2.459 -30.13,2.459C-30.553,2.459 -30.89,2.104 -30.956,1.921C-31.17,2.012 -31.262,2.246 -31.262,2.389C-31.262,2.623 -31.211,2.842 -30.977,3.075C-30.89,3.173 -30.977,3.216 -31.103,3.216C-31.619,3.216 -32.11,2.579 -32.231,2.129C-32.539,2.178 -32.561,2.579 -32.707,2.579C-32.849,2.579 -32.939,2.369 -32.939,2.153C-32.939,0.639 -30.485,0.305 -30.485,-1.67C-30.485,-3.969 -33.247,-3.498 -33.247,-4.324C-33.247,-4.49 -33.127,-4.629 -32.915,-4.726C-33.014,-4.939 -33.247,-5.035 -33.51,-5.035C-34.124,-5.035 -34.574,-4.582 -34.574,-3.969C-34.574,-2.717 -32.895,-2.695 -32.895,-1.748C-32.895,-1.3 -33.177,-1.156 -33.44,-0.945C-35.046,0.186 -35.944,1.325 -35.944,3.195C-35.944,5.2 -34.547,6.74 -32.731,6.74C-30.078,6.74 -30.008,3.69 -27.6,3.432C-26.704,4.042 -25.635,4.399 -24.596,4.399C-23.036,4.399 -22.347,3.996 -20.7,3.996C-20.031,3.996 -18.922,4.182 -17.598,5.088C-17.099,5.41 -16.892,5.485 -16.443,5.889C-15.402,6.784 -14.433,8.537 -14.433,9.788L-14.433,9.719C-14.433,10.121 -14.53,10.356 -14.712,10.356C-15.286,10.356 -15.776,9.834 -16.348,9.291C-16.702,8.911 -16.155,8.747 -16.965,8.296C-17.249,8.153 -17.572,8.415 -17.886,8.415C-18.523,8.415 -18.809,9.172 -18.809,9.834C-18.809,10.171 -18.549,10.256 -18.402,10.569C-18.074,11.208 -18.094,11.447 -17.79,12.084C-17.598,12.509 -17.269,12.796 -17.294,13.101C-17.294,13.217 -17.387,13.289 -17.387,13.406C-17.387,14.043 -16.538,14.471 -16.538,15.108C-16.538,15.462 -16.941,15.631 -17.037,15.915C-17.124,16.198 -17.055,16.262 -17.055,16.262C-17.037,16.315 -16.985,16.336 -16.941,16.336C-16.608,16.336 -16.466,15.985 -16.155,15.797C-16.132,16.218 -16.274,16.315 -16.274,16.624C-16.274,16.789 -16.302,17.044 -16.132,17.044C-15.918,17.044 -15.95,16.762 -15.754,16.624C-15.523,16.433 -15.307,16.456 -15.048,16.29C-14.712,16.079 -14.53,15.72 -14.409,15.702C-14.078,15.649 -13.984,16.054 -14.151,16.29C-13.771,16.315 -13.385,16.008 -12.887,16.008C-12.107,16.008 -11.849,15.797 -11.707,15.68C-11.21,15.255 -11.115,14.923 -10.57,14.923C-10.288,14.923 -10.144,15.154 -10.074,15.255C-9.7,14.965 -9.677,14.257 -10.074,13.663C-9.91,13.169 -9.209,13.123 -8.873,12.884C-8.536,12.651 -8.585,12.528 -8.345,12.389C-8.162,12.27 -7.998,12.296 -7.854,12.389C-7.692,11.722 -8.257,11.133 -8.945,11.044C-8.915,10.191 -8.018,9.671 -7.618,9.461C-7.854,8.936 -8.277,8.772 -8.661,8.68C-8.536,8.153 -7.973,7.397 -8.257,6.715C-8.512,6.833 -8.896,6.715 -8.896,6.336C-8.896,5.91 -8.345,5.702 -8.915,5.392C-9.171,5.246 -9.222,4.872 -8.75,4.516C-8.137,4.685 -7.545,4.659 -6.86,4.659C-6.438,4.659 -5.869,4.775 -5.491,4.775C-4.777,4.775 -4.358,4.494 -3.832,3.927C-2.536,2.51 -1.355,1.025 0,0" style="fill:white;fill-rule:nonzero;"/>
        </g>
    </g>
</svg>
