<?xml version="1.0" encoding="UTF-8" standalone="no"?>
<!DOCTYPE svg PUBLIC "-//W3C//DTD SVG 1.1//EN" "http://www.w3.org/Graphics/SVG/1.1/DTD/svg11.dtd">
<svg width="100%" height="100%" viewBox="0 0 300 195" version="1.1" xmlns="http://www.w3.org/2000/svg" xmlns:xlink="http://www.w3.org/1999/xlink" xml:space="preserve" xmlns:serif="http://www.serif.com/" style="fill-rule:evenodd;clip-rule:evenodd;stroke-linejoin:round;stroke-miterlimit:1.41421;">
    <g transform="matrix(2.47607,0,0,2.47607,-2.95213,-2.95215)">
        <path d="M38.4,64.215L38.187,64.422C34.74,67.933 30.751,69.794 26.64,69.794C18.06,69.794 11.832,63.358 11.832,54.476C11.832,45.611 18.06,39.165 26.64,39.165C30.751,39.165 34.74,41.034 38.187,44.555L38.4,44.768L43.919,38.095L43.771,37.914C39.182,32.491 33.676,29.852 26.907,29.852C20.114,29.852 13.905,32.138 9.429,36.26C4.567,40.725 2,47.021 2,54.476C2,61.928 4.567,68.24 9.429,72.705C13.905,76.847 20.114,79.12 26.907,79.12C33.676,79.12 39.182,76.482 43.771,71.057L43.919,70.888L38.4,64.215Z" style="fill:white;fill-rule:nonzero;"/>
        <rect x="49.495" y="30.625" width="9.748" height="47.588" style="fill:white;fill-rule:nonzero;"/>
        <path d="M97.427,67.865C94.827,69.448 92.406,70.244 90.233,70.244C87.083,70.244 85.66,68.582 85.66,64.88L85.66,39.629L95.588,39.629L95.588,30.668L85.66,30.668L85.66,15.861L76.105,20.974L76.105,30.668L67.863,30.668L67.863,39.629L76.105,39.629L76.105,66.49C76.105,73.808 80.44,78.808 86.911,78.938C91.305,79.024 93.954,77.715 95.563,76.758L95.657,76.688L98.004,67.513L97.427,67.865L97.427,67.865Z" style="fill:white;fill-rule:nonzero;"/>
        <rect x="105.501" y="30.625" width="9.755" height="47.588" style="fill:white;fill-rule:nonzero;"/>
        <path d="M121.095,22.181C112.171,9.541 97.352,2 82.274,2C67.203,2 52.38,9.541 43.472,22.181L43.015,22.831L54.251,22.831L54.375,22.696C62.023,14.803 72.006,10.629 82.274,10.629C92.544,10.629 102.525,14.803 110.187,22.696L110.312,22.831L121.544,22.831L121.095,22.181Z" style="fill:white;"/>
    </g>
</svg>
