<?xml version="1.0" encoding="UTF-8" standalone="no"?>
<!DOCTYPE svg PUBLIC "-//W3C//DTD SVG 1.1//EN" "http://www.w3.org/Graphics/SVG/1.1/DTD/svg11.dtd">
<svg width="100%" height="100%" viewBox="0 0 64 64" version="1.1" xmlns="http://www.w3.org/2000/svg" xmlns:xlink="http://www.w3.org/1999/xlink" xml:space="preserve" xmlns:serif="http://www.serif.com/" style="fill-rule:evenodd;clip-rule:evenodd;stroke-linejoin:round;stroke-miterlimit:1.41421;">
    <g transform="matrix(0.352778,0,0,-0.352778,27.1773,20.797)">
        <g id="g1607">
            <path id="path126" d="M0,0C-14.854,-5.31 -19.967,-19.695 -19.967,-19.695C-21.967,-25.002 -27.277,-28.989 -33.264,-28.989L-61.432,-28.989C-69.192,-28.989 -75.621,-22.564 -75.621,-14.827C-75.621,-7.075 -70.303,-0.884 -61.432,-0.884L-39.092,-0.922L-71.418,31.415C-76.947,36.952 -76.947,45.804 -71.418,51.315C-65.866,56.84 -56.991,56.84 -51.458,51.315L-19.302,19.294L-19.302,41.367C-19.302,49.104 -13.089,55.51 -5.11,55.51C2.665,55.51 8.874,49.104 8.874,41.367L8.874,13.274C8.874,7.302 5.322,1.761 0,0M-5.11,-119.021C-12.862,-119.021 -19.083,-113.915 -18.856,-105.078L-18.814,-82.651L-51.235,-115.022C-56.769,-120.567 -65.866,-120.567 -71.191,-115.022C-76.728,-109.508 -76.728,-100.433 -71.191,-95.134L-39.122,-63.035L-61.209,-63.035C-69.192,-63.035 -75.394,-56.625 -75.394,-48.9C-75.394,-41.151 -69.192,-34.734 -61.209,-34.734L-33.048,-34.734C-27.065,-34.734 -21.74,-38.268 -19.737,-43.586C-14.634,-58.613 -0.234,-63.7 -0.234,-63.7C5.322,-65.692 9.094,-70.779 9.094,-76.974L9.094,-105.078C9.094,-112.823 2.872,-119.021 -5.11,-119.021M85.576,-62.823L63.19,-62.801L95.546,-95.134C101.091,-100.653 101.091,-109.508 95.546,-115.022C90.013,-120.567 81.131,-120.567 75.594,-115.022L43.442,-82.949L43.442,-105.078C43.442,-113.495 37.005,-119.244 29.25,-119.244C21.483,-119.244 15.05,-112.823 15.05,-105.078L15.05,-76.974C15.05,-70.998 18.822,-65.469 24.151,-63.7C39.001,-58.613 44.1,-44.024 44.1,-44.024C46.095,-38.725 51.42,-34.734 57.407,-34.734L85.576,-34.734C93.343,-34.734 99.764,-41.151 99.764,-48.9C99.764,-56.625 94.001,-62.823 85.576,-62.823M85.799,-28.762L57.63,-28.762C51.647,-28.762 46.095,-25.221 44.326,-19.914C39.22,-5.091 24.593,0.223 24.593,0.223C19.268,2.219 15.273,7.302 15.273,13.5L15.273,41.59C15.273,49.327 21.702,55.51 29.473,55.51C37.232,55.51 43.442,49.765 43.442,41.59L43.449,19.079L75.814,51.534C81.358,57.06 90.232,57.06 95.773,51.534C101.318,46.023 101.318,36.952 95.773,31.415L63.844,-0.438L85.799,-0.438C93.555,-0.438 99.984,-6.856 99.984,-14.6C99.984,-22.345 93.555,-28.762 85.799,-28.762" style="fill:white;fill-rule:nonzero;"/>
        </g>
    </g>
</svg>
