<?xml version="1.0" encoding="UTF-8" standalone="no"?>
<!DOCTYPE svg PUBLIC "-//W3C//DTD SVG 1.1//EN" "http://www.w3.org/Graphics/SVG/1.1/DTD/svg11.dtd">
<svg width="100%" height="100%" viewBox="0 0 400 324" version="1.1" xmlns="http://www.w3.org/2000/svg" xmlns:xlink="http://www.w3.org/1999/xlink" xml:space="preserve" xmlns:serif="http://www.serif.com/" style="fill-rule:evenodd;clip-rule:evenodd;stroke-linejoin:round;stroke-miterlimit:1.41421;">
    <g id="path17715" transform="matrix(1,0,0,1,18.9688,0.00197)">
        <path d="M182.063,35.375C167.016,35.375 154.75,47.65 154.75,62.688C154.75,77.739 167.018,90.031 182.063,90.031C197.107,90.031 209.375,77.739 209.375,62.688C209.375,47.65 197.109,35.375 182.063,35.375ZM182.063,43.063C192.953,43.063 201.688,51.804 201.688,62.688C201.687,73.589 192.955,82.344 182.063,82.344C171.17,82.344 162.438,73.589 162.438,62.688C162.437,51.804 171.172,43.063 182.063,43.063ZM35.438,88.531L211.906,235.031L326.625,235.031L150.313,88.531L35.438,88.531ZM211.219,88.531L189.031,108.156L246.875,156.688L325.313,88.531L211.219,88.531ZM65.5,134.656C50.464,134.656 38.188,146.941 38.188,162C38.187,177.039 50.46,189.313 65.5,189.313C80.546,189.313 92.813,177.038 92.813,162C92.813,146.942 80.543,134.656 65.5,134.656ZM297.438,134.719C282.393,134.719 270.094,146.985 270.094,162.031C270.094,177.077 282.391,189.375 297.438,189.375C312.477,189.375 324.75,177.077 324.75,162.031C324.75,146.985 312.476,134.719 297.438,134.719ZM65.5,142.344C76.394,142.344 85.125,151.09 85.125,162C85.125,172.883 76.391,181.625 65.5,181.625C54.618,181.625 45.875,172.882 45.875,162C45.875,151.091 54.615,142.344 65.5,142.344ZM297.438,142.406C308.321,142.406 317.063,151.141 317.063,162.031C317.062,172.922 308.319,181.688 297.438,181.688C286.547,181.688 277.781,172.922 277.781,162.031C277.781,151.141 286.545,142.406 297.438,142.406ZM115.875,167.938L36.594,235.25L151.844,235.25L173.313,215.281L115.875,167.938ZM182.094,233.531C167.06,233.531 154.781,245.786 154.781,260.813C154.781,275.852 167.063,288.125 182.094,288.125C197.124,288.125 209.375,275.849 209.375,260.813C209.375,245.789 197.127,233.531 182.094,233.531ZM182.094,241.156C192.997,241.156 201.75,249.915 201.75,260.813C201.75,271.728 193,280.469 182.094,280.469C171.187,280.469 162.438,271.725 162.438,260.813C162.437,249.918 171.19,241.156 182.094,241.156Z" style="fill:white;fill-rule:nonzero;"/>
    </g>
</svg>
