<?xml version="1.0" encoding="UTF-8" standalone="no"?>
<!DOCTYPE svg PUBLIC "-//W3C//DTD SVG 1.1//EN" "http://www.w3.org/Graphics/SVG/1.1/DTD/svg11.dtd">
<svg width="100%" height="100%" viewBox="0 0 360 90" version="1.1" xmlns="http://www.w3.org/2000/svg" xmlns:xlink="http://www.w3.org/1999/xlink" xml:space="preserve" xmlns:serif="http://www.serif.com/" style="fill-rule:evenodd;clip-rule:evenodd;stroke-linejoin:round;stroke-miterlimit:1.41421;">
    <g id="Layer-1" serif:id="Layer 1">
        <path id="path33" d="M34.565,16.703L34.565,18.298L40.513,18.298L40.513,49.292C40.513,58.607 37.929,61.23 32.17,61.23C28.547,61.23 27.95,58.478 27.95,57.054C27.95,53.665 27.762,51.591 24.675,51.591C21.571,51.591 21.208,54.726 21.208,55.684C21.208,59.952 23.107,63.218 31.588,63.218C41.696,63.218 47.099,59.805 47.099,48.472L47.099,18.289L53.242,18.298L53.242,16.703L34.565,16.703M53.152,57.07C52.432,57.788 52.076,58.639 52.076,59.671C52.076,60.697 52.432,61.541 53.161,62.222C53.885,62.933 54.747,63.276 55.753,63.276C56.777,63.276 57.641,62.933 58.38,62.222C59.091,61.541 59.452,60.697 59.452,59.671C59.452,58.628 59.091,57.775 58.38,57.07C57.667,56.355 56.807,56.025 55.753,56.025C54.712,56.025 53.852,56.355 53.152,57.07M94.63,57.07C93.919,57.788 93.575,58.639 93.575,59.671C93.575,60.697 93.919,61.541 94.63,62.222C95.386,62.933 96.224,63.276 97.23,63.276C98.272,63.276 99.14,62.933 99.873,62.222C100.595,61.541 100.951,60.697 100.951,59.671C100.951,58.628 100.595,57.775 99.877,57.07C99.151,56.355 98.28,56.025 97.23,56.025C96.202,56.025 95.338,56.355 94.63,57.07M65.927,16.707L65.927,18.297L71.3,18.297L71.3,53.654C71.3,56.434 71.129,57.156 70.818,57.961C70.486,58.86 69.736,59.569 68.624,60.03C67.797,60.378 66.544,60.562 64.873,60.608L64.873,62.069L84.56,62.069L84.56,60.623C82.891,60.582 81.618,60.391 80.785,60.094C79.61,59.63 78.849,58.948 78.477,58.022C78.151,57.226 77.982,56.526 77.982,55.128L77.982,43.02L82.854,43.001C97.003,43.001 100.98,37.418 100.98,29.799C100.98,22.099 98.538,16.703 84.212,16.703L65.927,16.707M77.982,18.501L81.367,18.455C92.278,18.455 94.66,22.943 94.66,30.217C94.66,37.536 90.37,41.27 81.717,41.27L77.982,41.27L77.982,18.501M152.054,16.809C151.89,17.229 138.19,51.37 138.19,51.37L137.877,51.573L137.549,51.37C137.549,51.37 122.949,17.229 122.779,16.809L109.897,16.809L109.897,18.271L115.488,18.271L115.488,53.382L115.367,56.58C115.278,57.425 115.015,58.177 114.602,58.776C114.167,59.431 113.458,59.925 112.537,60.251C111.929,60.45 111.023,60.583 109.897,60.61L109.897,62.071L122.682,62.071L122.682,60.629C121.595,60.583 121.123,60.476 120.486,60.264C119.548,59.956 118.843,59.49 118.377,58.822C117.962,58.201 117.693,57.46 117.599,56.58L117.457,53.382L117.457,23.055L118.207,23.055C118.207,23.055 134.74,61.646 134.913,62.071L136.293,62.071L151.94,23.483L152.334,23.483L152.334,54.754C152.334,56.092 152.198,57.125 151.94,57.926C151.632,58.862 150.965,59.568 149.998,60.045C149.28,60.365 148.187,60.553 146.745,60.61L146.745,62.071L164.584,62.071L164.584,60.61C163.16,60.54 162.057,60.347 161.309,60.012C160.272,59.507 159.601,58.776 159.306,57.842C159.047,57.026 158.923,56.029 158.923,54.754L158.923,18.299L163.665,18.253L163.665,16.809L152.054,16.809M167.812,46.179C167.812,62.334 180.381,63.401 183.094,63.401C188.466,63.401 198.651,60.05 198.651,45.875C198.651,34.846 192.137,28.843 183.308,28.843C173.786,28.843 167.812,35.154 167.812,46.179M174.921,46.358C174.921,37.499 175.473,30.851 183.181,30.851C191.511,30.851 191.551,37.731 191.551,45.801C191.551,57.397 189.569,61.398 183.181,61.398C176.024,61.398 174.921,57.821 174.921,46.358M214.519,36.129L214.072,36.113C214.024,36.129 213.252,31.13 212.961,29.658C210.739,29.658 201.938,29.636 201.938,29.636L201.938,31.327L207.904,31.327C207.904,31.327 207.869,36.391 207.869,38.216L207.869,53.725C207.869,55.945 207.624,57.494 207.144,58.432C206.534,59.539 205.167,60.095 202.903,60.095L201.938,60.095L201.938,62.07L220.409,62.07L220.409,60.095L219.414,60.095C216.99,60.095 215.945,59.568 215.295,58.518C214.707,57.592 214.444,56.024 214.444,53.725L214.444,42.094C214.444,38.172 217.397,33.707 220.937,33.707C224.636,33.707 224.548,39.406 228.742,37.113C231.021,35.866 230.636,29.336 223.562,29.336C217.865,29.336 216.089,32.701 214.519,36.129M272.189,31.343C270.08,32.948 269.26,34.431 269.26,36.555C269.26,37.542 269.525,38.238 270.08,38.706C270.636,39.2 271.29,39.428 272.091,39.428C273.926,39.428 274.958,38.494 275.339,36.079C275.621,34.287 276.013,33.265 276.894,32.331C277.837,31.343 279.312,30.848 281.302,30.848C283.619,30.848 285.257,31.472 286.178,32.719C287.02,33.891 287.467,35.486 287.467,37.454L287.467,42.895C281.547,43.429 267.573,44.551 268.195,55.195C268.429,59.36 272.102,63.015 276.846,63.015C282.092,63.015 285.413,60.027 287.666,57.636C288.027,59.903 290.131,62.609 293.955,62.609C298.255,62.609 300.823,60.5 301.123,55.228L300.018,55.228C299.728,57.52 298.31,58.756 297.144,58.756C295.167,58.756 294.539,57.656 294.392,55.825L294.276,51.673L294.276,38.087C294.276,35.153 293.804,33.182 292.073,31.454C290.372,29.726 287.077,28.842 282.315,28.842C277.743,28.842 274.348,29.687 272.189,31.343M274.661,53.948C274.661,47.909 282.934,44.888 287.467,44.888L287.467,55.322L287.355,55.58L287.217,55.711C284.052,58.581 281.635,59.605 279.867,59.605C275.339,59.605 274.661,55.834 274.661,53.948M314.124,35.514L313.531,35.49L312.374,29.597L302.333,29.58L302.333,31.271C304.219,31.349 307.362,31.384 307.362,31.384L307.362,53.688C307.362,55.421 307.226,56.668 306.97,57.494C306.704,58.481 306.063,59.17 305.115,59.568C304.507,59.831 303.551,59.975 302.333,60.03L302.333,62.071L318.297,62.071L318.297,60.014C316.692,59.885 315.609,59.45 315.031,58.63C314.408,57.753 314.124,56.245 314.124,54.043L314.124,45.476C314.124,41.893 314.104,38.433 315.327,36.291C316.646,33.957 319.061,32.671 321.764,32.671C324.195,32.671 325.474,33.449 326.277,34.992C326.931,36.247 327.356,39.983 327.356,42.554L327.277,53.17C327.277,54.937 327.5,56.245 327.356,57.083C327.176,58.061 326.732,58.822 325.964,59.328C325.407,59.713 324.529,59.912 323.405,59.997L323.405,62.071L338.792,62.071L338.792,60.03C336.845,59.903 335.572,59.43 335.014,58.52C334.382,57.593 333.859,56.031 333.859,53.703L333.947,39.008C333.947,36.884 333.662,35.066 332.864,33.574C332.057,32.124 330.924,31.023 329.515,30.299C328.082,29.58 326.441,29.225 324.639,29.225C318.149,29.225 315.543,33.187 314.124,35.514M262.725,27.533C261.774,27.837 261.142,28.684 260.807,30.114C260.558,31.433 260.057,32.197 259.389,32.411C258.72,32.608 257.974,32.551 257.086,32.249C255.432,30.712 252.258,28.843 246.671,28.843C237.678,28.843 233.715,35.251 233.715,41.096C233.715,47.938 236.344,51.25 242.13,52.468C242.48,52.543 242.48,52.93 242.176,53C237.241,54 232.868,55.443 232.868,60.133C232.868,62.96 234.491,64.508 236.567,65.355C238.86,66.287 242.082,66.77 246.127,66.842C249.664,66.882 252.171,67.007 253.803,67.201C255.568,67.402 256.966,67.906 257.998,68.658C259.061,69.481 259.623,70.692 259.623,72.278C259.623,74.448 258.464,76.194 256.15,77.487C253.997,78.69 251.055,79.318 247.395,79.318C244.256,79.318 241.688,78.974 239.369,77.531C237.652,76.467 237.318,74.376 237.678,72.871C237.998,71.349 237.453,69.743 235.688,69.446C234.717,69.282 233.494,69.811 232.929,70.692C232.4,71.513 232.214,72.488 232.214,73.652C232.214,77.511 235.193,79.318 237.471,79.983C240.944,81.042 243.248,81.297 246.442,81.297C250.677,81.297 254.115,80.65 256.574,79.405C259.033,78.163 260.748,76.645 261.662,74.899C262.627,73.14 263.088,71.347 263.088,69.618C263.088,67.287 262.577,65.386 261.581,63.986C258.368,59.567 253.803,60.133 243.543,59.643C238.608,59.643 237.657,58.753 237.657,57.235C237.657,55.01 239.485,54.133 246.632,53.037C253.663,51.943 260.216,49.362 260.216,40.774C260.216,38.304 259.639,36.182 258.941,34.699C260.396,35.023 261.752,35.023 262.99,34.614C264.41,34.177 265.331,33.466 265.864,32.468C266.398,31.468 266.518,30.528 266.223,29.609C265.753,28.106 264.948,27.356 263.786,27.356C263.46,27.356 263.108,27.415 262.725,27.533M240.238,41.096C240.238,35.065 242.342,30.578 246.844,30.578C252.083,30.578 253.614,34.667 253.614,40.971C253.614,49.988 250.775,51.169 246.844,51.169C242.642,51.169 240.238,49.642 240.238,41.096" style="fill:white;fill-rule:nonzero;"/>
        <rect id="rect3296" x="0" y="0" width="360" height="90" style="fill:none;"/>
    </g>
</svg>
