<?xml version="1.0" encoding="UTF-8" standalone="no"?>
<!DOCTYPE svg PUBLIC "-//W3C//DTD SVG 1.1//EN" "http://www.w3.org/Graphics/SVG/1.1/DTD/svg11.dtd">
<svg width="100%" height="100%" viewBox="0 0 300 163" version="1.1" xmlns="http://www.w3.org/2000/svg" xmlns:xlink="http://www.w3.org/1999/xlink" xml:space="preserve" xmlns:serif="http://www.serif.com/" style="fill-rule:evenodd;clip-rule:evenodd;stroke-linejoin:round;stroke-miterlimit:1.41421;">
    <g id="g6" transform="matrix(0.0142942,0,0,-0.0142942,0,162.239)">
        <path id="path8" d="M0,5675L0,0L20987.5,0L20987.5,11350L10493.8,11350L0,11350L0,5675ZM20200,5675L20200,800L10487.5,800L775,800L775,10550L20200,10550L20200,5675Z" style="fill:white;fill-rule:nonzero;"/>
        <path id="path10" d="M15237.5,8967.5C14968.8,8943.75 14662.5,8882.5 14427.5,8806.25C13931.2,8646.25 13551.2,8413.75 13181.2,8043.75C12753.8,7616.25 12477.5,7127.5 12323.8,6530C12238.8,6193.75 12220,6032.5 12220,5625C12218.8,5255 12228.8,5153.75 12287.5,4866.25C12391.2,4366.25 12635,3862.5 12960,3475C13087.5,3323.75 13362.5,3056.25 13503.8,2946.25C13965,2587.5 14507.5,2375 15127.5,2312.5C15351.2,2288.75 15840,2302.5 16037.5,2336.25C16512.5,2418.75 16932.5,2593.75 17282.5,2857.5C17778.8,3231.25 18157.5,3777.5 18337.5,4380C18437.5,4716.25 18475,4980 18483.8,5435L18491.2,5762.5L17163.8,5762.5L15837.5,5762.5L15837.5,5306.25L15837.5,4850L16637.5,4850C17268.8,4850 17437.5,4846.25 17437.5,4835C17437.5,4796.25 17361.2,4522.5 17326.2,4433.75C17186.2,4082.5 16943.8,3767.5 16656.2,3563.75C16535,3478.75 16293.8,3356.25 16162.5,3313.75C15647.5,3147.5 15040,3196.25 14531.2,3445C13890,3757.5 13438.8,4361.25 13295,5097.5C13203.8,5565 13240,6095 13392.5,6531.25C13687.5,7376.25 14371.2,7930 15253.8,8038.75C15438.8,8061.25 15846.2,8047.5 16017.5,8012.5C16585,7898.75 17076.2,7583.75 17443.8,7096.25L17516.2,6998.75L17605,7085C17653.8,7131.25 17808.8,7280 17950,7413.75C18091.2,7547.5 18207.5,7660 18210,7663.75C18217.5,7681.25 18008.8,7926.25 17873.8,8057.5C17541.2,8381.25 17096.2,8651.25 16650,8800C16287.5,8921.25 16025,8963.75 15600,8968.75C15431.2,8970 15268.8,8970 15237.5,8967.5Z" style="fill:white;fill-rule:nonzero;"/>
        <path id="path12" d="M5571.25,8760C5555,8723.75 4873.75,7277.5 4057.5,5547.5C3242.5,3816.25 2575,2397.5 2575,2393.75C2575,2390 2815,2388.75 3108.75,2390L3641.25,2393.75L4343.75,3948.75L5706.25,3950L7070,3950L7408.75,3172.5L7747.5,2393.75L8280,2390C8572.5,2388.75 8812.5,2391.25 8812.5,2395C8812.5,2405 8852.5,2316.25 6781.25,6931.25C6495,7571.25 6188.75,8251.25 6103.75,8443.75C6017.5,8636.25 5941.25,8801.25 5935,8810C5925,8820 5875,8825 5762.5,8825L5601.25,8825L5571.25,8760ZM6193.75,5981.25C6445,5412.5 6648.75,4943.75 6646.25,4941.25C6643.75,4938.75 6221.25,4938.75 5708.75,4940L4776.25,4943.75L5252.5,5985C5513.75,6557.5 5730,7023.75 5732.5,7021.25C5735,7018.75 5942.5,6551.25 6193.75,5981.25Z" style="fill:white;fill-rule:nonzero;"/>
        <path id="path14" d="M9912.5,5568.75L9912.5,2400L10887.5,2400L10887.5,8737.5L10400,8737.5L9912.5,8737.5L9912.5,5568.75Z" style="fill:white;fill-rule:nonzero;"/>
    </g>
</svg>
