<svg id="Layer_1" data-name="Layer 1" xmlns="http://www.w3.org/2000/svg" viewBox="0 0 30.59 717.54"><title>logo_vertical</title><rect x="1.75" y="688.7" width="28.84" height="28.84" style="fill:#515050"/><rect x="0.44" y="691.32" width="27.53" height="26.22" style="fill:#d9d9d9"/><rect x="1.75" y="367.31" width="28.84" height="28.84" style="fill:#515050"/><rect x="0.44" y="369.93" width="27.53" height="26.22" style="fill:#d9d9d9"/><rect x="1.75" y="642.78" width="28.84" height="28.84" style="fill:#515050"/><rect x="0.44" y="645.41" width="27.53" height="26.22" style="fill:#eeedee"/><text transform="translate(21.35 665.47) rotate(-90)" style="font-size:18.35359764099121px;font-family:ArialRoundedMTBold, Arial Rounded MT Bold">U</text><rect x="1.75" y="596.87" width="28.84" height="28.84" style="fill:#515050"/><rect x="0.44" y="599.5" width="27.53" height="26.22" style="fill:#eeedee"/><text transform="translate(21.35 618.71) rotate(-90)" style="font-size:18.35359764099121px;font-family:ArialRoundedMTBold, Arial Rounded MT Bold">P</text><rect x="1.75" y="550.96" width="28.84" height="28.84" style="fill:#515050"/><rect x="0.44" y="553.58" width="27.53" height="26.22" style="fill:#eeedee"/><text transform="translate(21.35 569.55) rotate(-90)" style="font-size:18.35359764099121px;font-family:ArialRoundedMTBold, Arial Rounded MT Bold">I</text><rect x="1.75" y="505.05" width="28.84" height="28.84" style="fill:#515050"/><rect x="0.44" y="507.67" width="27.53" height="26.22" style="fill:#eeedee"/><text transform="translate(21.35 526.49) rotate(-90)" style="font-size:18.35359764099121px;font-family:ArialRoundedMTBold, Arial Rounded MT Bold">T</text><rect x="1.75" y="459.13" width="28.84" height="28.84" style="fill:#515050"/><rect x="0.44" y="461.76" width="27.53" height="26.22" style="fill:#eeedee"/><text transform="translate(21.35 481.81) rotate(-90)" style="font-size:18.35359764099121px;font-family:ArialRoundedMTBold, Arial Rounded MT Bold">U</text><rect x="1.75" y="413.22" width="28.84" height="28.84" style="fill:#515050"/><rect x="0.44" y="415.84" width="27.53" height="26.22" style="fill:#eeedee"/><text transform="translate(21.35 435.05) rotate(-90)" style="font-size:18.35359764099121px;font-family:ArialRoundedMTBold, Arial Rounded MT Bold">P</text><text x="-2.55" y="-12.84"></text><rect x="1.71" y="321.39" width="28.84" height="28.84" style="fill:#515050"/><rect x="0.4" y="324.01" width="27.53" height="26.22" style="fill:#d9d9d9"/><rect x="1.71" y="275.48" width="28.84" height="28.84" style="fill:#515050"/><rect x="0.4" y="278.1" width="27.53" height="26.22" style="fill:#eeedee"/><text transform="translate(21.32 297.79) rotate(-90)" style="font-size:18.35359764099121px;font-family:ArialRoundedMTBold, Arial Rounded MT Bold">R</text><rect x="1.71" y="229.57" width="28.84" height="28.84" style="fill:#515050"/><rect x="0.4" y="232.19" width="27.53" height="26.22" style="fill:#eeedee"/><text transform="translate(21.32 251.4) rotate(-90)" style="font-size:18.35359764099121px;font-family:ArialRoundedMTBold, Arial Rounded MT Bold">E</text><rect x="1.71" y="183.65" width="28.84" height="28.84" style="fill:#515050"/><rect x="0.4" y="186.28" width="27.53" height="26.22" style="fill:#eeedee"/><text transform="translate(21.32 206.16) rotate(-90)" style="font-size:18.35359764099121px;font-family:ArialRoundedMTBold, Arial Rounded MT Bold">C</text><rect x="1.71" y="137.74" width="28.84" height="28.84" style="fill:#515050"/><rect x="0.4" y="140.36" width="27.53" height="26.22" style="fill:#eeedee"/><text transform="translate(21.32 160.72) rotate(-90)" style="font-size:18.35359764099121px;font-family:ArialRoundedMTBold, Arial Rounded MT Bold">O</text><rect x="1.71" y="91.83" width="28.84" height="28.84" style="fill:#515050"/><rect x="0.4" y="94.45" width="27.53" height="26.22" style="fill:#eeedee"/><text transform="translate(21.32 114.14) rotate(-90)" style="font-size:18.35359764099121px;font-family:ArialRoundedMTBold, Arial Rounded MT Bold">R</text><rect x="1.71" y="45.91" width="28.84" height="28.84" style="fill:#515050"/><rect x="0.4" y="48.53" width="27.53" height="26.22" style="fill:#eeedee"/><text transform="translate(21.32 68.41) rotate(-90)" style="font-size:18.35359764099121px;font-family:ArialRoundedMTBold, Arial Rounded MT Bold">D</text><rect x="1.71" width="28.84" height="28.84" style="fill:#515050"/><rect x="0.4" y="2.62" width="27.53" height="26.22" style="fill:#eeedee"/><text transform="translate(21.32 21.83) rotate(-90)" style="font-size:18.35359764099121px;font-family:ArialRoundedMTBold, Arial Rounded MT Bold">S</text></svg>