<svg id="Layer_1" data-name="Layer 1" xmlns="http://www.w3.org/2000/svg" viewBox="0 0 676.57 166"><title>logo_white</title><path d="M75.55,80.13H0V4.57H75.55Zm0,10.31H0V166H75.55ZM161.41,4.57H85.86V80.13h75.56Zm85.86,0H171.72V80.13h75.55Zm85.86,0H257.58V80.13h75.55Zm85.86,0H343.44V80.13H419Zm85.86,0H429.3V80.13h75.55Zm85.86,0H515.16V80.13h75.55Zm85.86,0H601V80.13h75.55ZM161.41,90.44H85.86V166h75.56Zm85.86,0H171.72V166h75.55Zm85.86,0H257.58V166h75.55Zm85.86,0H343.44V166H419Zm85.86,0H429.3V166h75.55Zm85.86,0H515.16V166h75.55Zm85.86,0H601V166h75.55Z" style="fill:#fff"/><path d="M68.69,73.26H0V1.14H68.69Zm0,13.75H0v72.12H68.69ZM154.54,1.14H85.86V73.26h68.69Zm85.86,0H171.72V73.26H240.4Zm85.86,0H257.58V73.26h68.69Zm85.86,0H343.44V73.26h68.68Zm85.86,0H429.3V73.26H498Zm85.86,0H515.16V73.26h68.69Zm85.86,0H601V73.26H669.7ZM154.54,87H85.86v72.12h68.69Zm85.86,0H171.72v72.12H240.4Zm85.86,0H257.58v72.12h68.69Zm85.86,0H343.44v72.12h68.68ZM498,87H429.3v72.12H498Zm85.86,0H515.16v72.12h68.69Zm85.86,0H601v72.12H669.7Z" style="fill:#d9d9d9"/><text transform="translate(102 55.94)" style="font-size:48.079200744628906px;font-family:ArialRoundedMTBold, Arial Rounded MT Bold">U</text><text transform="translate(190.08 55.94)" style="font-size:48.079200744628906px;font-family:ArialRoundedMTBold, Arial Rounded MT Bold">P</text><text transform="translate(284.42 55.94)" style="font-size:48.079200744628906px;font-family:ArialRoundedMTBold, Arial Rounded MT Bold">I</text><text transform="translate(362.81 55.94)" style="font-size:48.079200744628906px;font-family:ArialRoundedMTBold, Arial Rounded MT Bold">T</text><text transform="translate(445.44 55.94)" style="font-size:48.079200744628906px;font-family:ArialRoundedMTBold, Arial Rounded MT Bold">U</text><text transform="translate(533.52 55.94)" style="font-size:48.079200744628906px;font-family:ArialRoundedMTBold, Arial Rounded MT Bold">P</text><text transform="translate(102.97 141.8)" style="font-size:48.079200744628906px;font-family:ArialRoundedMTBold, Arial Rounded MT Bold">R</text><text transform="translate(190.08 141.8)" style="font-size:48.079200744628906px;font-family:ArialRoundedMTBold, Arial Rounded MT Bold">E</text><text transform="translate(274.19 141.8)" style="font-size:48.079200744628906px;font-family:ArialRoundedMTBold, Arial Rounded MT Bold">C</text><text transform="translate(358.8 141.8)" style="font-size:48.079200744628906px;font-family:ArialRoundedMTBold, Arial Rounded MT Bold">O</text><text transform="translate(446.41 141.8)" style="font-size:48.079200744628906px;font-family:ArialRoundedMTBold, Arial Rounded MT Bold">R</text><text transform="translate(531.77 141.8)" style="font-size:48.079200744628906px;font-family:ArialRoundedMTBold, Arial Rounded MT Bold">D</text><text transform="translate(619.38 141.8)" style="font-size:48.079200744628906px;font-family:ArialRoundedMTBold, Arial Rounded MT Bold">S</text></svg>