<svg id="Layer_1" data-name="Layer 1" xmlns="http://www.w3.org/2000/svg" viewBox="0 0 676.57 164.86"><title>logo_vector</title><path d="M75.55,80.13H0V4.57H75.55Zm0,10.31H0V166H75.55ZM161.41,4.57H85.86V80.13h75.56Zm85.86,0H171.72V80.13h75.55Zm85.86,0H257.58V80.13h75.55Zm85.86,0H343.44V80.13H419Zm85.86,0H429.3V80.13h75.55Zm85.86,0H515.16V80.13h75.55Zm85.86,0H601V80.13h75.55ZM161.41,90.44H85.86V166h75.56Zm85.86,0H171.72V166h75.55Zm85.86,0H257.58V166h75.55Zm85.86,0H343.44V166H419Zm85.86,0H429.3V166h75.55Zm85.86,0H515.16V166h75.55Zm85.86,0H601V166h75.55Z" transform="translate(0 -1.14)" style="fill:#fff"/><path d="M1,158.13V88H67.69v70.12Zm601,0V88H668.7v70.12Zm-85.86,0V88h66.69v70.12Zm-85.86,0V88H497v70.12Zm-85.86,0V88h66.68v70.12Zm-85.86,0V88h66.69v70.12Zm-85.86,0V88H239.4v70.12Zm-85.87,0V88h66.69v70.12ZM602,72.26V2.14H668.7V72.26Zm-85.86,0V2.14h66.69V72.26Zm-85.86,0V2.14H497V72.26Zm-85.86,0V2.14h66.68V72.26Zm-85.86,0V2.14h66.69V72.26Zm-85.86,0V2.14H239.4V72.26Zm-85.87,0V2.14h66.69V72.26ZM1,72.26V2.14H67.69V72.26Z" transform="translate(0 -1.14)"/><path d="M667.7,3.14V71.26H603V3.14H667.7m-85.86,0V71.26H517.16V3.14h64.69M496,3.14V71.26H431.3V3.14H496m-85.86,0V71.26H345.44V3.14h64.68m-85.86,0V71.26H259.58V3.14h64.69m-85.86,0V71.26H173.72V3.14H238.4m-85.86,0V71.26H87.86V3.14h64.69m-85.86,0V71.26H2V3.14H66.69M667.7,89v68.12H603V89H667.7m-85.86,0v68.12H517.16V89h64.69M496,89v68.12H431.3V89H496m-85.86,0v68.12H345.44V89h64.68m-85.86,0v68.12H259.58V89h64.69M238.4,89v68.12H173.72V89H238.4m-85.86,0v68.12H87.86V89h64.69M66.69,89v68.12H2V89H66.69m603-87.87H601V73.26H669.7V1.14Zm-85.86,0H515.16V73.26h68.69V1.14ZM498,1.14H429.3V73.26H498V1.14Zm-85.86,0H343.44V73.26h68.68V1.14Zm-85.86,0H257.58V73.26h68.69V1.14Zm-85.86,0H171.72V73.26H240.4V1.14Zm-85.86,0H85.86V73.26h68.69V1.14Zm-85.86,0H0V73.26H68.69V1.14ZM669.7,87H601v72.12H669.7V87Zm-85.86,0H515.16v72.12h68.69V87ZM498,87H429.3v72.12H498V87Zm-85.86,0H343.44v72.12h68.68V87Zm-85.86,0H257.58v72.12h68.69V87ZM240.4,87H171.72v72.12H240.4V87Zm-85.86,0H85.86v72.12h68.69V87ZM68.69,87H0v72.12H68.69V87Z" transform="translate(0 -1.14)" style="fill:#fff"/><text transform="translate(102 54.79)" style="font-size:48.079200744628906px;fill:#fff;font-family:ArialRoundedMTBold, Arial Rounded MT Bold">U</text><text transform="translate(190.08 54.79)" style="font-size:48.079200744628906px;fill:#fff;font-family:ArialRoundedMTBold, Arial Rounded MT Bold">P</text><text transform="translate(284.42 54.79)" style="font-size:48.079200744628906px;fill:#fff;font-family:ArialRoundedMTBold, Arial Rounded MT Bold">I</text><text transform="translate(362.81 54.79)" style="font-size:48.079200744628906px;fill:#fff;font-family:ArialRoundedMTBold, Arial Rounded MT Bold">T</text><text transform="translate(445.44 54.79)" style="font-size:48.079200744628906px;fill:#fff;font-family:ArialRoundedMTBold, Arial Rounded MT Bold">U</text><text transform="translate(533.52 54.79)" style="font-size:48.079200744628906px;fill:#fff;font-family:ArialRoundedMTBold, Arial Rounded MT Bold">P</text><text transform="translate(102.97 140.66)" style="font-size:48.079200744628906px;fill:#fff;font-family:ArialRoundedMTBold, Arial Rounded MT Bold">R</text><text transform="translate(190.08 140.66)" style="font-size:48.079200744628906px;fill:#fff;font-family:ArialRoundedMTBold, Arial Rounded MT Bold">E</text><text transform="translate(274.19 140.66)" style="font-size:48.079200744628906px;fill:#fff;font-family:ArialRoundedMTBold, Arial Rounded MT Bold">C</text><text transform="translate(358.8 140.66)" style="font-size:48.079200744628906px;fill:#fff;font-family:ArialRoundedMTBold, Arial Rounded MT Bold">O</text><text transform="translate(446.41 140.66)" style="font-size:48.079200744628906px;fill:#fff;font-family:ArialRoundedMTBold, Arial Rounded MT Bold">R</text><text transform="translate(531.77 140.66)" style="font-size:48.079200744628906px;fill:#fff;font-family:ArialRoundedMTBold, Arial Rounded MT Bold">D</text><text transform="translate(619.38 140.66)" style="font-size:48.079200744628906px;fill:#fff;font-family:ArialRoundedMTBold, Arial Rounded MT Bold">S</text></svg>