<svg id="Layer_1" data-name="Layer 1" xmlns="http://www.w3.org/2000/svg" viewBox="0 0 676.57 166"><title>upitup</title><rect y="4.58" width="75.55" height="75.56" style="fill:#515050"/><rect y="1.14" width="68.69" height="72.12" style="fill:#d9d9d9"/><rect y="90.44" width="75.55" height="75.56" style="fill:#515050"/><rect y="87.01" width="68.69" height="72.12" style="fill:#d9d9d9"/><rect x="85.86" y="4.58" width="75.56" height="75.56" style="fill:#515050"/><rect x="85.86" y="1.14" width="68.69" height="72.12" style="fill:#eeedee"/><rect x="171.72" y="4.58" width="75.55" height="75.56" style="fill:#515050"/><rect x="171.72" y="1.14" width="68.68" height="72.12" style="fill:#eeedee"/><rect x="257.58" y="4.58" width="75.55" height="75.56" style="fill:#515050"/><rect x="257.58" y="1.14" width="68.69" height="72.12" style="fill:#eeedee"/><rect x="343.44" y="4.58" width="75.55" height="75.56" style="fill:#515050"/><rect x="343.44" y="1.14" width="68.68" height="72.12" style="fill:#eeedee"/><rect x="429.3" y="4.58" width="75.55" height="75.56" style="fill:#515050"/><rect x="429.3" y="1.14" width="68.68" height="72.12" style="fill:#eeedee"/><rect x="515.16" y="4.58" width="75.55" height="75.56" style="fill:#515050"/><rect x="515.16" y="1.14" width="68.69" height="72.12" style="fill:#eeedee"/><rect x="601.02" y="4.58" width="75.55" height="75.56" style="fill:#515050"/><rect x="601.02" y="1.14" width="68.69" height="72.12" style="fill:#d9d9d9"/><text transform="translate(102 55.94)" style="font-size:48.079200744628906px;font-family:ArialRoundedMTBold, Arial Rounded MT Bold">U</text><text transform="translate(190.08 55.94)" style="font-size:48.079200744628906px;font-family:ArialRoundedMTBold, Arial Rounded MT Bold">P</text><text transform="translate(284.42 55.94)" style="font-size:48.079200744628906px;font-family:ArialRoundedMTBold, Arial Rounded MT Bold">I</text><text transform="translate(362.81 55.94)" style="font-size:48.079200744628906px;font-family:ArialRoundedMTBold, Arial Rounded MT Bold">T</text><text transform="translate(445.44 55.94)" style="font-size:48.079200744628906px;font-family:ArialRoundedMTBold, Arial Rounded MT Bold">U</text><text transform="translate(533.52 55.94)" style="font-size:48.079200744628906px;font-family:ArialRoundedMTBold, Arial Rounded MT Bold">P</text><text x="-4.48" y="-8.96"></text><rect x="85.86" y="90.44" width="75.56" height="75.56" style="fill:#515050"/><rect x="85.86" y="87.01" width="68.69" height="72.12" style="fill:#eeedee"/><rect x="171.72" y="90.44" width="75.55" height="75.56" style="fill:#515050"/><rect x="171.72" y="87.01" width="68.68" height="72.12" style="fill:#eeedee"/><rect x="257.58" y="90.44" width="75.55" height="75.56" style="fill:#515050"/><rect x="257.58" y="87.01" width="68.69" height="72.12" style="fill:#eeedee"/><rect x="343.44" y="90.44" width="75.55" height="75.56" style="fill:#515050"/><rect x="343.44" y="87.01" width="68.68" height="72.12" style="fill:#eeedee"/><rect x="429.3" y="90.44" width="75.55" height="75.56" style="fill:#515050"/><rect x="429.3" y="87.01" width="68.68" height="72.12" style="fill:#eeedee"/><rect x="515.16" y="90.44" width="75.55" height="75.56" style="fill:#515050"/><rect x="515.16" y="87.01" width="68.69" height="72.12" style="fill:#eeedee"/><rect x="601.02" y="90.44" width="75.55" height="75.56" style="fill:#515050"/><rect x="601.02" y="87.01" width="68.69" height="72.12" style="fill:#eeedee"/><text transform="translate(102.97 141.8)" style="font-size:48.079200744628906px;font-family:ArialRoundedMTBold, Arial Rounded MT Bold">R</text><text transform="translate(190.08 141.8)" style="font-size:48.079200744628906px;font-family:ArialRoundedMTBold, Arial Rounded MT Bold">E</text><text transform="translate(274.19 141.8)" style="font-size:48.079200744628906px;font-family:ArialRoundedMTBold, Arial Rounded MT Bold">C</text><text transform="translate(358.8 141.8)" style="font-size:48.079200744628906px;font-family:ArialRoundedMTBold, Arial Rounded MT Bold">O</text><text transform="translate(446.41 141.8)" style="font-size:48.079200744628906px;font-family:ArialRoundedMTBold, Arial Rounded MT Bold">R</text><text transform="translate(531.77 141.8)" style="font-size:48.079200744628906px;font-family:ArialRoundedMTBold, Arial Rounded MT Bold">D</text><text transform="translate(619.38 141.8)" style="font-size:48.079200744628906px;font-family:ArialRoundedMTBold, Arial Rounded MT Bold">S</text></svg>